# Wavefront OBJ

mtllib north.mtl

o north_0

s 1

usemtl north_0

v 0 -10 0
v 2 0 0
v 1.73205 0 -1
v 1 0 -1.73205
v -8.74228e-08 0 -2
v -1 0 -1.73205
v -1.73205 0 -1
v -2 0 1.74846e-07
v -1.73205 0 1
v -1 0 1.73205
v 2.38498e-08 0 2
v 1 0 1.73205
v 1.73205 0 1

vn -0 -1 -0
vn 1 0 0
vn 0.866025 0 -0.5
vn 0.5 0 -0.866025
vn -4.37114e-08 0 -1
vn -0.5 0 -0.866025
vn -0.866025 0 -0.5
vn -1 -0 8.74228e-08
vn -0.866025 -0 0.5
vn -0.5 -0 0.866025
vn 1.19249e-08 0 1
vn 0.5 0 0.866025
vn 0.866025 0 0.5

f 1//1 3//3 2//2
f 1//1 4//4 3//3
f 1//1 5//5 4//4
f 1//1 6//6 5//5
f 1//1 7//7 6//6
f 1//1 8//8 7//7
f 1//1 9//9 8//8
f 1//1 10//10 9//9
f 1//1 11//11 10//10
f 1//1 12//12 11//11
f 1//1 13//13 12//12
f 1//1 2//2 13//13

