# Wavefront OBJ

mtllib sew.mtl

o sew_0

s 1

usemtl sew_0

v 0 9 0
v -1.3 0 0
v -1.12583 0 -0.65
v -0.65 0 -1.12583
v 5.68248e-08 0 -1.3
v 0.65 0 -1.12583
v 1.12583 0 -0.65
v 1.3 0 1.1365e-07
v 1.12583 0 0.65
v 0.65 0 1.12583
v -1.55023e-08 0 1.3
v -0.65 0 1.12583
v -1.12583 0 0.65
v 9 0 0
v 0 1.3 0
v 0 1.12583 -0.65
v 0 0.65 -1.12583
v 0 -5.68248e-08 -1.3
v 0 -0.65 -1.12583
v 0 -1.12583 -0.65
v 0 -1.3 1.1365e-07
v 0 -1.12583 0.65
v 0 -0.65 1.12583
v 0 1.55023e-08 1.3
v 0 0.65 1.12583
v 0 1.12583 0.65
v -9 0 0
v 0 -1.3 0
v 0 -1.12583 -0.65
v 0 -0.65 -1.12583
v 0 5.68248e-08 -1.3
v 0 0.65 -1.12583
v 0 1.12583 -0.65
v 0 1.3 1.1365e-07
v 0 1.12583 0.65
v 0 0.65 1.12583
v 0 -1.55023e-08 1.3
v 0 -0.65 1.12583
v 0 -1.12583 0.65

vn -0 1 -0
vn -1 0 0
vn -0.866025 0 -0.5
vn -0.5 0 -0.866025
vn 4.37114e-08 -0 -1
vn 0.5 -0 -0.866025
vn 0.866025 -0 -0.5
vn 1 0 8.74228e-08
vn 0.866025 0 0.5
vn 0.5 0 0.866025
vn -1.19249e-08 0 1
vn -0.5 0 0.866025
vn -0.866025 0 0.5
vn 1 -0 -0
vn 0 1 -0
vn 0 0.866025 -0.5
vn 0 0.5 -0.866025
vn -0 -4.37114e-08 -1
vn -0 -0.5 -0.866025
vn -0 -0.866025 -0.5
vn 0 -1 8.74228e-08
vn 0 -0.866025 0.5
vn 0 -0.5 0.866025
vn 0 1.19249e-08 1
vn 0 0.5 0.866025
vn 0 0.866025 0.5
vn -1 -0 -0
vn 0 -1 0
vn 0 -0.866025 -0.5
vn 0 -0.5 -0.866025
vn 0 4.37114e-08 -1
vn 0 0.5 -0.866025
vn 0 0.866025 -0.5
vn -0 1 8.74228e-08
vn -0 0.866025 0.5
vn -0 0.5 0.866025
vn 0 -1.19249e-08 1
vn 0 -0.5 0.866025
vn 0 -0.866025 0.5

f 1//1 3//3 2//2
f 1//1 4//4 3//3
f 1//1 5//5 4//4
f 1//1 6//6 5//5
f 1//1 7//7 6//6
f 1//1 8//8 7//7
f 1//1 9//9 8//8
f 1//1 10//10 9//9
f 1//1 11//11 10//10
f 1//1 12//12 11//11
f 1//1 13//13 12//12
f 1//1 2//2 13//13
f 14//14 16//16 15//15
f 14//14 17//17 16//16
f 14//14 18//18 17//17
f 14//14 19//19 18//18
f 14//14 20//20 19//19
f 14//14 21//21 20//20
f 14//14 22//22 21//21
f 14//14 23//23 22//22
f 14//14 24//24 23//23
f 14//14 25//25 24//24
f 14//14 26//26 25//25
f 14//14 15//15 26//26
f 27//27 29//29 28//28
f 27//27 30//30 29//29
f 27//27 31//31 30//30
f 27//27 32//32 31//31
f 27//27 33//33 32//32
f 27//27 34//34 33//33
f 27//27 35//35 34//34
f 27//27 36//36 35//35
f 27//27 37//37 36//36
f 27//27 38//38 37//37
f 27//27 39//39 38//38
f 27//27 28//28 39//39

