# Wavefront OBJ

mtllib sphere.mtl

o sphere_0

s 1

usemtl sphere_0

v -5.25731 0 8.50651
v 5.25731 0 8.50651
v -5.25731 0 -8.50651
v 5.25731 0 -8.50651
v 0 8.50651 5.25731
v 0 8.50651 -5.25731
v 0 -8.50651 5.25731
v 0 -8.50651 -5.25731
v 8.50651 5.25731 0
v -8.50651 5.25731 0
v 8.50651 -5.25731 0
v -8.50651 -5.25731 0
v 3.09017 5 8.09017
v -3.09017 5 8.09017
v 0 0 10
v -5 8.09017 3.09017
v -8.09017 3.09017 5
v 0 10 0
v -5 8.09017 -3.09017
v 5 8.09017 -3.09017
v 5 8.09017 3.09017
v 8.09017 3.09017 5
v 8.09017 -3.09017 5
v 10 0 0
v 8.09017 -3.09017 -5
v 8.09017 3.09017 -5
v 3.09017 5 -8.09017
v 0 0 -10
v -3.09017 5 -8.09017
v 3.09017 -5 -8.09017
v -3.09017 -5 -8.09017
v 5 -8.09017 -3.09017
v 5 -8.09017 3.09017
v 0 -10 0
v -5 -8.09017 3.09017
v -5 -8.09017 -3.09017
v -3.09017 -5 8.09017
v -8.09017 -3.09017 5
v 3.09017 -5 8.09017
v -10 0 0
v -8.09017 -3.09017 -5
v -8.09017 3.09017 -5
v 4.42863 2.38856 8.64188
v 1.6246 2.62866 9.51056
v 2.95242 0 9.55423
v 1.47621 7.16567 6.81718
v -1.47621 7.16567 6.81718
v 0 5.25731 8.50651
v -1.6246 2.62866 9.51056
v -4.42863 2.38856 8.64188
v -2.95242 0 9.55423
v -2.38856 8.64188 4.42863
v -4.25325 6.88191 5.87785
v -7.16567 6.81718 1.47621
v -8.64188 4.42863 2.38856
v -6.88191 5.87785 4.25325
v -5.87785 4.25325 6.88191
v -6.81718 1.47621 7.16567
v 0 9.55423 2.95242
v -2.62866 9.51056 1.6246
v 0 9.55423 -2.95242
v -2.38856 8.64188 -4.42863
v -2.62866 9.51056 -1.6246
v -5.25731 8.50651 0
v -7.16567 6.81718 -1.47621
v 7.16567 6.81718 -1.47621
v 5.25731 8.50651 0
v 7.16567 6.81718 1.47621
v 2.38856 8.64188 -4.42863
v 2.62866 9.51056 -1.6246
v 2.62866 9.51056 1.6246
v 2.38856 8.64188 4.42863
v 6.81718 1.47621 7.16567
v 5.87785 4.25325 6.88191
v 8.64188 4.42863 2.38856
v 6.88191 5.87785 4.25325
v 4.25325 6.88191 5.87785
v 6.81718 -1.47621 7.16567
v 8.50651 0 5.25731
v 8.64188 -4.42863 2.38856
v 9.55423 -2.95242 0
v 9.51056 -1.6246 2.62866
v 9.51056 1.6246 2.62866
v 9.55423 2.95242 0
v 8.64188 -4.42863 -2.38856
v 9.51056 -1.6246 -2.62866
v 6.81718 -1.47621 -7.16567
v 6.81718 1.47621 -7.16567
v 8.50651 0 -5.25731
v 9.51056 1.6246 -2.62866
v 8.64188 4.42863 -2.38856
v 6.88191 5.87785 -4.25325
v 4.42863 2.38856 -8.64188
v 5.87785 4.25325 -6.88191
v 4.25325 6.88191 -5.87785
v 1.47621 7.16567 -6.81718
v 2.95242 0 -9.55423
v 1.6246 2.62866 -9.51056
v -2.95242 0 -9.55423
v -4.42863 2.38856 -8.64188
v -1.6246 2.62866 -9.51056
v 0 5.25731 -8.50651
v -1.47621 7.16567 -6.81718
v 4.42863 -2.38856 -8.64188
v 1.6246 -2.62866 -9.51056
v 1.47621 -7.16567 -6.81718
v -1.47621 -7.16567 -6.81718
v 0 -5.25731 -8.50651
v -1.6246 -2.62866 -9.51056
v -4.42863 -2.38856 -8.64188
v 5.87785 -4.25325 -6.88191
v 7.16567 -6.81718 -1.47621
v 6.88191 -5.87785 -4.25325
v 4.25325 -6.88191 -5.87785
v 2.38856 -8.64188 -4.42863
v 7.16567 -6.81718 1.47621
v 5.25731 -8.50651 0
v 2.38856 -8.64188 4.42863
v 0 -9.55423 2.95242
v 2.62866 -9.51056 1.6246
v 2.62866 -9.51056 -1.6246
v 0 -9.55423 -2.95242
v -2.38856 -8.64188 4.42863
v -2.62866 -9.51056 1.6246
v -7.16567 -6.81718 1.47621
v -7.16567 -6.81718 -1.47621
v -5.25731 -8.50651 0
v -2.62866 -9.51056 -1.6246
v -2.38856 -8.64188 -4.42863
v -1.47621 -7.16567 6.81718
v -4.25325 -6.88191 5.87785
v -4.42863 -2.38856 8.64188
v -6.81718 -1.47621 7.16567
v -5.87785 -4.25325 6.88191
v -6.88191 -5.87785 4.25325
v -8.64188 -4.42863 2.38856
v 1.47621 -7.16567 6.81718
v 0 -5.25731 8.50651
v 4.42863 -2.38856 8.64188
v 1.6246 -2.62866 9.51056
v -1.6246 -2.62866 9.51056
v 6.88191 -5.87785 4.25325
v 5.87785 -4.25325 6.88191
v 4.25325 -6.88191 5.87785
v -9.51056 -1.6246 2.62866
v -9.55423 -2.95242 0
v -8.50651 0 5.25731
v -9.51056 1.6246 2.62866
v -9.55423 2.95242 0
v -6.81718 -1.47621 -7.16567
v -8.50651 0 -5.25731
v -6.81718 1.47621 -7.16567
v -8.64188 -4.42863 -2.38856
v -9.51056 -1.6246 -2.62866
v -9.51056 1.6246 -2.62866
v -8.64188 4.42863 -2.38856
v -4.25325 6.88191 -5.87785
v -5.87785 4.25325 -6.88191
v -6.88191 5.87785 -4.25325
v -6.88191 -5.87785 -4.25325
v -5.87785 -4.25325 -6.88191
v -4.25325 -6.88191 -5.87785

vn -0.525731 0 0.850651
vn 0.525731 0 0.850651
vn -0.525731 0 -0.850651
vn 0.525731 0 -0.850651
vn 0 0.850651 0.525731
vn 0 0.850651 -0.525731
vn 0 -0.850651 0.525731
vn 0 -0.850651 -0.525731
vn 0.850651 0.525731 0
vn -0.850651 0.525731 0
vn 0.850651 -0.525731 0
vn -0.850651 -0.525731 0
vn 0.309017 0.5 0.809017
vn -0.309017 0.5 0.809017
vn 0 0 1
vn -0.5 0.809017 0.309017
vn -0.809017 0.309017 0.5
vn 0 1 0
vn -0.5 0.809017 -0.309017
vn 0.5 0.809017 -0.309017
vn 0.5 0.809017 0.309017
vn 0.809017 0.309017 0.5
vn 0.809017 -0.309017 0.5
vn 1 0 0
vn 0.809017 -0.309017 -0.5
vn 0.809017 0.309017 -0.5
vn 0.309017 0.5 -0.809017
vn 0 0 -1
vn -0.309017 0.5 -0.809017
vn 0.309017 -0.5 -0.809017
vn -0.309017 -0.5 -0.809017
vn 0.5 -0.809017 -0.309017
vn 0.5 -0.809017 0.309017
vn 0 -1 0
vn -0.5 -0.809017 0.309017
vn -0.5 -0.809017 -0.309017
vn -0.309017 -0.5 0.809017
vn -0.809017 -0.309017 0.5
vn 0.309017 -0.5 0.809017
vn -1 0 0
vn -0.809017 -0.309017 -0.5
vn -0.809017 0.309017 -0.5
vn 0.433889 0.259892 0.862668
vn 0.16246 0.262866 0.951057
vn 0.273266 0 0.961938
vn 0.160622 0.702046 0.69378
vn -0.160622 0.702046 0.69378
vn 0 0.525731 0.850651
vn -0.16246 0.262866 0.951057
vn -0.433889 0.259892 0.862668
vn -0.273266 0 0.961938
vn -0.259892 0.862668 0.433889
vn -0.425325 0.688191 0.587785
vn -0.702047 0.69378 0.160622
vn -0.862668 0.433889 0.259892
vn -0.688191 0.587785 0.425325
vn -0.587785 0.425325 0.688191
vn -0.69378 0.160622 0.702046
vn 0 0.961938 0.273266
vn -0.262866 0.951057 0.16246
vn 0 0.961938 -0.273266
vn -0.259892 0.862668 -0.433889
vn -0.262866 0.951057 -0.16246
vn -0.525731 0.850651 0
vn -0.702047 0.69378 -0.160622
vn 0.702047 0.69378 -0.160622
vn 0.525731 0.850651 0
vn 0.702047 0.69378 0.160622
vn 0.259892 0.862668 -0.433889
vn 0.262866 0.951057 -0.16246
vn 0.262866 0.951057 0.16246
vn 0.259892 0.862668 0.433889
vn 0.69378 0.160622 0.702046
vn 0.587785 0.425325 0.688191
vn 0.862668 0.433889 0.259892
vn 0.688191 0.587785 0.425325
vn 0.425325 0.688191 0.587785
vn 0.69378 -0.160622 0.702046
vn 0.850651 0 0.525731
vn 0.862668 -0.433889 0.259892
vn 0.961938 -0.273266 0
vn 0.951057 -0.16246 0.262866
vn 0.951057 0.16246 0.262866
vn 0.961938 0.273266 0
vn 0.862668 -0.433889 -0.259892
vn 0.951057 -0.16246 -0.262866
vn 0.69378 -0.160622 -0.702046
vn 0.69378 0.160622 -0.702046
vn 0.850651 0 -0.525731
vn 0.951057 0.16246 -0.262866
vn 0.862668 0.433889 -0.259892
vn 0.688191 0.587785 -0.425325
vn 0.433889 0.259892 -0.862668
vn 0.587785 0.425325 -0.688191
vn 0.425325 0.688191 -0.587785
vn 0.160622 0.702046 -0.69378
vn 0.273266 0 -0.961938
vn 0.16246 0.262866 -0.951057
vn -0.273266 0 -0.961938
vn -0.433889 0.259892 -0.862668
vn -0.16246 0.262866 -0.951057
vn 0 0.525731 -0.850651
vn -0.160622 0.702046 -0.69378
vn 0.433889 -0.259892 -0.862668
vn 0.16246 -0.262866 -0.951057
vn 0.160622 -0.702046 -0.69378
vn -0.160622 -0.702046 -0.69378
vn 0 -0.525731 -0.850651
vn -0.16246 -0.262866 -0.951057
vn -0.433889 -0.259892 -0.862668
vn 0.587785 -0.425325 -0.688191
vn 0.702047 -0.69378 -0.160622
vn 0.688191 -0.587785 -0.425325
vn 0.425325 -0.688191 -0.587785
vn 0.259892 -0.862668 -0.433889
vn 0.702047 -0.69378 0.160622
vn 0.525731 -0.850651 0
vn 0.259892 -0.862668 0.433889
vn 0 -0.961938 0.273266
vn 0.262866 -0.951057 0.16246
vn 0.262866 -0.951057 -0.16246
vn 0 -0.961938 -0.273266
vn -0.259892 -0.862668 0.433889
vn -0.262866 -0.951057 0.16246
vn -0.702047 -0.69378 0.160622
vn -0.702047 -0.69378 -0.160622
vn -0.525731 -0.850651 0
vn -0.262866 -0.951057 -0.16246
vn -0.259892 -0.862668 -0.433889
vn -0.160622 -0.702046 0.69378
vn -0.425325 -0.688191 0.587785
vn -0.433889 -0.259892 0.862668
vn -0.69378 -0.160622 0.702046
vn -0.587785 -0.425325 0.688191
vn -0.688191 -0.587785 0.425325
vn -0.862668 -0.433889 0.259892
vn 0.160622 -0.702046 0.69378
vn 0 -0.525731 0.850651
vn 0.433889 -0.259892 0.862668
vn 0.16246 -0.262866 0.951057
vn -0.16246 -0.262866 0.951057
vn 0.688191 -0.587785 0.425325
vn 0.587785 -0.425325 0.688191
vn 0.425325 -0.688191 0.587785
vn -0.951057 -0.16246 0.262866
vn -0.961938 -0.273266 0
vn -0.850651 0 0.525731
vn -0.951057 0.16246 0.262866
vn -0.961938 0.273266 0
vn -0.69378 -0.160622 -0.702046
vn -0.850651 0 -0.525731
vn -0.69378 0.160622 -0.702046
vn -0.862668 -0.433889 -0.259892
vn -0.951057 -0.16246 -0.262866
vn -0.951057 0.16246 -0.262866
vn -0.862668 0.433889 -0.259892
vn -0.425325 0.688191 -0.587785
vn -0.587785 0.425325 -0.688191
vn -0.688191 0.587785 -0.425325
vn -0.688191 -0.587785 -0.425325
vn -0.587785 -0.425325 -0.688191
vn -0.425325 -0.688191 -0.587785

f 2//2 43//43 45//45
f 43//43 13//13 44//44
f 44//44 45//45 43//43
f 44//44 15//15 45//45
f 13//13 46//46 48//48
f 46//46 5//5 47//47
f 47//47 48//48 46//46
f 47//47 14//14 48//48
f 14//14 49//49 48//48
f 49//49 15//15 44//44
f 44//44 48//48 49//49
f 44//44 13//13 48//48
f 14//14 50//50 49//49
f 50//50 1//1 51//51
f 51//51 49//49 50//50
f 51//51 15//15 49//49
f 5//5 52//52 47//47
f 52//52 16//16 53//53
f 53//53 47//47 52//52
f 53//53 14//14 47//47
f 16//16 54//54 56//56
f 54//54 10//10 55//55
f 55//55 56//56 54//54
f 55//55 17//17 56//56
f 17//17 57//57 56//56
f 57//57 14//14 53//53
f 53//53 56//56 57//57
f 53//53 16//16 56//56
f 17//17 58//58 57//57
f 58//58 1//1 50//50
f 50//50 57//57 58//58
f 50//50 14//14 57//57
f 5//5 59//59 52//52
f 59//59 18//18 60//60
f 60//60 52//52 59//59
f 60//60 16//16 52//52
f 18//18 61//61 63//63
f 61//61 6//6 62//62
f 62//62 63//63 61//61
f 62//62 19//19 63//63
f 19//19 64//64 63//63
f 64//64 16//16 60//60
f 60//60 63//63 64//64
f 60//60 18//18 63//63
f 19//19 65//65 64//64
f 65//65 10//10 54//54
f 54//54 64//64 65//65
f 54//54 16//16 64//64
f 9//9 66//66 68//68
f 66//66 20//20 67//67
f 67//67 68//68 66//66
f 67//67 21//21 68//68
f 20//20 69//69 70//70
f 69//69 6//6 61//61
f 61//61 70//70 69//69
f 61//61 18//18 70//70
f 18//18 71//71 70//70
f 71//71 21//21 67//67
f 67//67 70//70 71//71
f 67//67 20//20 70//70
f 18//18 59//59 71//71
f 59//59 5//5 72//72
f 72//72 71//71 59//59
f 72//72 21//21 71//71
f 2//2 73//73 43//43
f 73//73 22//22 74//74
f 74//74 43//43 73//73
f 74//74 13//13 43//43
f 22//22 75//75 76//76
f 75//75 9//9 68//68
f 68//68 76//76 75//75
f 68//68 21//21 76//76
f 21//21 77//77 76//76
f 77//77 13//13 74//74
f 74//74 76//76 77//77
f 74//74 22//22 76//76
f 21//21 72//72 77//77
f 72//72 5//5 46//46
f 46//46 77//77 72//72
f 46//46 13//13 77//77
f 2//2 78//78 73//73
f 78//78 23//23 79//79
f 79//79 73//73 78//78
f 79//79 22//22 73//73
f 23//23 80//80 82//82
f 80//80 11//11 81//81
f 81//81 82//82 80//80
f 81//81 24//24 82//82
f 24//24 83//83 82//82
f 83//83 22//22 79//79
f 79//79 82//82 83//83
f 79//79 23//23 82//82
f 24//24 84//84 83//83
f 84//84 9//9 75//75
f 75//75 83//83 84//84
f 75//75 22//22 83//83
f 11//11 85//85 81//81
f 85//85 25//25 86//86
f 86//86 81//81 85//85
f 86//86 24//24 81//81
f 25//25 87//87 89//89
f 87//87 4//4 88//88
f 88//88 89//89 87//87
f 88//88 26//26 89//89
f 26//26 90//90 89//89
f 90//90 24//24 86//86
f 86//86 89//89 90//90
f 86//86 25//25 89//89
f 26//26 91//91 90//90
f 91//91 9//9 84//84
f 84//84 90//90 91//91
f 84//84 24//24 90//90
f 9//9 91//91 66//66
f 91//91 26//26 92//92
f 92//92 66//66 91//91
f 92//92 20//20 66//66
f 26//26 88//88 94//94
f 88//88 4//4 93//93
f 93//93 94//94 88//88
f 93//93 27//27 94//94
f 27//27 95//95 94//94
f 95//95 20//20 92//92
f 92//92 94//94 95//95
f 92//92 26//26 94//94
f 27//27 96//96 95//95
f 96//96 6//6 69//69
f 69//69 95//95 96//96
f 69//69 20//20 95//95
f 4//4 97//97 93//93
f 97//97 28//28 98//98
f 98//98 93//93 97//97
f 98//98 27//27 93//93
f 28//28 99//99 101//101
f 99//99 3//3 100//100
f 100//100 101//101 99//99
f 100//100 29//29 101//101
f 29//29 102//102 101//101
f 102//102 27//27 98//98
f 98//98 101//101 102//102
f 98//98 28//28 101//101
f 29//29 103//103 102//102
f 103//103 6//6 96//96
f 96//96 102//102 103//103
f 96//96 27//27 102//102
f 4//4 104//104 97//97
f 104//104 30//30 105//105
f 105//105 97//97 104//104
f 105//105 28//28 97//97
f 30//30 106//106 108//108
f 106//106 8//8 107//107
f 107//107 108//108 106//106
f 107//107 31//31 108//108
f 31//31 109//109 108//108
f 109//109 28//28 105//105
f 105//105 108//108 109//109
f 105//105 30//30 108//108
f 31//31 110//110 109//109
f 110//110 3//3 99//99
f 99//99 109//109 110//110
f 99//99 28//28 109//109
f 4//4 87//87 104//104
f 87//87 25//25 111//111
f 111//111 104//104 87//87
f 111//111 30//30 104//104
f 25//25 85//85 113//113
f 85//85 11//11 112//112
f 112//112 113//113 85//85
f 112//112 32//32 113//113
f 32//32 114//114 113//113
f 114//114 30//30 111//111
f 111//111 113//113 114//114
f 111//111 25//25 113//113
f 32//32 115//115 114//114
f 115//115 8//8 106//106
f 106//106 114//114 115//115
f 106//106 30//30 114//114
f 11//11 116//116 112//112
f 116//116 33//33 117//117
f 117//117 112//112 116//116
f 117//117 32//32 112//112
f 33//33 118//118 120//120
f 118//118 7//7 119//119
f 119//119 120//120 118//118
f 119//119 34//34 120//120
f 34//34 121//121 120//120
f 121//121 32//32 117//117
f 117//117 120//120 121//121
f 117//117 33//33 120//120
f 34//34 122//122 121//121
f 122//122 8//8 115//115
f 115//115 121//121 122//122
f 115//115 32//32 121//121
f 7//7 123//123 119//119
f 123//123 35//35 124//124
f 124//124 119//119 123//123
f 124//124 34//34 119//119
f 35//35 125//125 127//127
f 125//125 12//12 126//126
f 126//126 127//127 125//125
f 126//126 36//36 127//127
f 36//36 128//128 127//127
f 128//128 34//34 124//124
f 124//124 127//127 128//128
f 124//124 35//35 127//127
f 36//36 129//129 128//128
f 129//129 8//8 122//122
f 122//122 128//128 129//129
f 122//122 34//34 128//128
f 7//7 130//130 123//123
f 130//130 37//37 131//131
f 131//131 123//123 130//130
f 131//131 35//35 123//123
f 37//37 132//132 134//134
f 132//132 1//1 133//133
f 133//133 134//134 132//132
f 133//133 38//38 134//134
f 38//38 135//135 134//134
f 135//135 35//35 131//131
f 131//131 134//134 135//135
f 131//131 37//37 134//134
f 38//38 136//136 135//135
f 136//136 12//12 125//125
f 125//125 135//135 136//136
f 125//125 35//35 135//135
f 7//7 137//137 130//130
f 137//137 39//39 138//138
f 138//138 130//130 137//137
f 138//138 37//37 130//130
f 39//39 139//139 140//140
f 139//139 2//2 45//45
f 45//45 140//140 139//139
f 45//45 15//15 140//140
f 15//15 141//141 140//140
f 141//141 37//37 138//138
f 138//138 140//140 141//141
f 138//138 39//39 140//140
f 15//15 51//51 141//141
f 51//51 1//1 132//132
f 132//132 141//141 51//51
f 132//132 37//37 141//141
f 11//11 80//80 116//116
f 80//80 23//23 142//142
f 142//142 116//116 80//80
f 142//142 33//33 116//116
f 23//23 78//78 143//143
f 78//78 2//2 139//139
f 139//139 143//143 78//78
f 139//139 39//39 143//143
f 39//39 144//144 143//143
f 144//144 33//33 142//142
f 142//142 143//143 144//144
f 142//142 23//23 143//143
f 39//39 137//137 144//144
f 137//137 7//7 118//118
f 118//118 144//144 137//137
f 118//118 33//33 144//144
f 12//12 136//136 146//146
f 136//136 38//38 145//145
f 145//145 146//146 136//136
f 145//145 40//40 146//146
f 38//38 133//133 147//147
f 133//133 1//1 58//58
f 58//58 147//147 133//133
f 58//58 17//17 147//147
f 17//17 148//148 147//147
f 148//148 40//40 145//145
f 145//145 147//147 148//148
f 145//145 38//38 147//147
f 17//17 55//55 148//148
f 55//55 10//10 149//149
f 149//149 148//148 55//55
f 149//149 40//40 148//148
f 3//3 150//150 152//152
f 150//150 41//41 151//151
f 151//151 152//152 150//150
f 151//151 42//42 152//152
f 41//41 153//153 154//154
f 153//153 12//12 146//146
f 146//146 154//154 153//153
f 146//146 40//40 154//154
f 40//40 155//155 154//154
f 155//155 42//42 151//151
f 151//151 154//154 155//155
f 151//151 41//41 154//154
f 40//40 149//149 155//155
f 149//149 10//10 156//156
f 156//156 155//155 149//149
f 156//156 42//42 155//155
f 6//6 103//103 62//62
f 103//103 29//29 157//157
f 157//157 62//62 103//103
f 157//157 19//19 62//62
f 29//29 100//100 158//158
f 100//100 3//3 152//152
f 152//152 158//158 100//100
f 152//152 42//42 158//158
f 42//42 159//159 158//158
f 159//159 19//19 157//157
f 157//157 158//158 159//159
f 157//157 29//29 158//158
f 42//42 156//156 159//159
f 156//156 10//10 65//65
f 65//65 159//159 156//156
f 65//65 19//19 159//159
f 12//12 153//153 126//126
f 153//153 41//41 160//160
f 160//160 126//126 153//153
f 160//160 36//36 126//126
f 41//41 150//150 161//161
f 150//150 3//3 110//110
f 110//110 161//161 150//150
f 110//110 31//31 161//161
f 31//31 162//162 161//161
f 162//162 36//36 160//160
f 160//160 161//161 162//162
f 160//160 41//41 161//161
f 31//31 107//107 162//162
f 107//107 8//8 129//129
f 129//129 162//162 107//107
f 129//129 36//36 162//162

