# Wavefront OBJ

mtllib wbelt.mtl

o wbelt_0

s 1

usemtl wbelt_0

v 9.70362 4.00441 0
v 8.72059 5.84353 0
v 9.57446 3.93537 -0.353553
v 8.59143 5.7745 -0.353553
v 9.26266 3.76871 -0.5
v 8.27962 5.60784 -0.5
v 8.95085 3.60205 -0.353553
v 7.96782 5.44117 -0.353553
v 8.8217 3.53301 4.37114e-08
v 7.83866 5.37214 4.37114e-08
v 8.95085 3.60205 0.353553
v 7.96782 5.44117 0.353553
v 9.26266 3.76871 0.5
v 8.27962 5.60784 0.5
v 9.57446 3.93537 0.353553
v 8.59143 5.7745 0.353553
v 8.73594 5.82055 0
v 7.413 7.43255 0
v 8.62274 5.72764 -0.353553
v 7.2998 7.33965 -0.353553
v 8.34944 5.50335 -0.5
v 7.0265 7.11536 -0.5
v 8.07614 5.27906 -0.353553
v 6.7532 6.89107 -0.353553
v 7.96293 5.18615 4.37114e-08
v 6.63999 6.79816 4.37114e-08
v 8.07614 5.27906 0.353553
v 6.7532 6.89107 0.353553
v 8.34944 5.50335 0.5
v 7.0265 7.11536 0.5
v 8.62274 5.72764 0.353553
v 7.2998 7.33965 0.353553
v 4.02995 9.69304 0
v 2.03438 10.2984 0
v 3.98744 9.5529 -0.353553
v 1.99187 10.1582 -0.353553
v 3.88481 9.21457 -0.5
v 1.88924 9.81992 -0.5
v 3.78218 8.87624 -0.353553
v 1.78661 9.48159 -0.353553
v 3.73967 8.7361 4.37114e-08
v 1.7441 9.34145 4.37114e-08
v 3.78218 8.87624 0.353553
v 1.78661 9.48159 0.353553
v 3.88481 9.21457 0.5
v 1.88924 9.81992 0.5
v 3.98744 9.5529 0.353553
v 1.99187 10.1582 0.353553
v 2.0615 10.293 0
v -0.0138229 10.4974 0
v 2.04714 10.1473 -0.353553
v -0.0281772 10.3517 -0.353553
v 2.01249 9.7954 -0.5
v -0.0628314 9.9998 -0.5
v 1.97783 9.44355 -0.353553
v -0.0974857 9.64795 -0.353553
v 1.96348 9.29781 4.37114e-08
v -0.11184 9.50221 4.37114e-08
v 1.97783 9.44355 0.353553
v -0.0974857 9.64795 0.353553
v 2.01249 9.7954 0.5
v -0.0628314 9.9998 0.5
v 2.04714 10.1473 0.353553
v -0.0281772 10.3517 0.353553
v -4.00441 9.70362 0
v -5.84353 8.72059 0
v -3.93537 9.57446 -0.353553
v -5.7745 8.59143 -0.353553
v -3.76871 9.26266 -0.5
v -5.60784 8.27962 -0.5
v -3.60205 8.95085 -0.353553
v -5.44117 7.96782 -0.353553
v -3.53301 8.8217 4.37114e-08
v -5.37214 7.83866 4.37114e-08
v -3.60205 8.95085 0.353553
v -5.44117 7.96782 0.353553
v -3.76871 9.26266 0.5
v -5.60784 8.27962 0.5
v -3.93537 9.57446 0.353553
v -5.7745 8.59143 0.353553
v -5.82055 8.73594 0
v -7.43255 7.413 0
v -5.72764 8.62274 -0.353553
v -7.33965 7.2998 -0.353553
v -5.50335 8.34944 -0.5
v -7.11536 7.0265 -0.5
v -5.27906 8.07614 -0.353553
v -6.89107 6.7532 -0.353553
v -5.18615 7.96293 4.37114e-08
v -6.79816 6.63999 4.37114e-08
v -5.27906 8.07614 0.353553
v -6.89107 6.7532 0.353553
v -5.50335 8.34944 0.5
v -7.11536 7.0265 0.5
v -5.72764 8.62274 0.353553
v -7.33965 7.2998 0.353553
v -9.69304 4.02995 0
v -10.2984 2.03438 0
v -9.5529 3.98744 -0.353553
v -10.1582 1.99187 -0.353553
v -9.21457 3.88481 -0.5
v -9.81992 1.88924 -0.5
v -8.87624 3.78218 -0.353553
v -9.48159 1.78661 -0.353553
v -8.7361 3.73967 4.37114e-08
v -9.34145 1.7441 4.37114e-08
v -8.87624 3.78218 0.353553
v -9.48159 1.78661 0.353553
v -9.21457 3.88481 0.5
v -9.81992 1.88924 0.5
v -9.5529 3.98744 0.353553
v -10.1582 1.99187 0.353553
v -10.293 2.0615 0
v -10.4974 -0.0138229 0
v -10.1473 2.04714 -0.353553
v -10.3517 -0.0281772 -0.353553
v -9.7954 2.01249 -0.5
v -9.9998 -0.0628314 -0.5
v -9.44355 1.97783 -0.353553
v -9.64795 -0.0974857 -0.353553
v -9.29781 1.96348 4.37114e-08
v -9.50221 -0.11184 4.37114e-08
v -9.44355 1.97783 0.353553
v -9.64795 -0.0974857 0.353553
v -9.7954 2.01249 0.5
v -9.9998 -0.0628314 0.5
v -10.1473 2.04714 0.353553
v -10.3517 -0.0281772 0.353553
v -9.70362 -4.00441 0
v -8.72059 -5.84353 0
v -9.57446 -3.93537 -0.353553
v -8.59143 -5.7745 -0.353553
v -9.26266 -3.76871 -0.5
v -8.27962 -5.60784 -0.5
v -8.95085 -3.60205 -0.353553
v -7.96782 -5.44117 -0.353553
v -8.8217 -3.53301 4.37114e-08
v -7.83866 -5.37214 4.37114e-08
v -8.95085 -3.60205 0.353553
v -7.96782 -5.44117 0.353553
v -9.26266 -3.76871 0.5
v -8.27962 -5.60784 0.5
v -9.57446 -3.93537 0.353553
v -8.59143 -5.7745 0.353553
v -8.73594 -5.82055 0
v -7.413 -7.43255 0
v -8.62274 -5.72764 -0.353553
v -7.2998 -7.33965 -0.353553
v -8.34944 -5.50335 -0.5
v -7.0265 -7.11536 -0.5
v -8.07614 -5.27906 -0.353553
v -6.7532 -6.89107 -0.353553
v -7.96293 -5.18615 4.37114e-08
v -6.63999 -6.79816 4.37114e-08
v -8.07614 -5.27906 0.353553
v -6.7532 -6.89107 0.353553
v -8.34944 -5.50335 0.5
v -7.0265 -7.11536 0.5
v -8.62274 -5.72764 0.353553
v -7.2998 -7.33965 0.353553
v -4.02995 -9.69304 0
v -2.03438 -10.2984 0
v -3.98744 -9.5529 -0.353553
v -1.99187 -10.1582 -0.353553
v -3.88481 -9.21457 -0.5
v -1.88924 -9.81992 -0.5
v -3.78218 -8.87624 -0.353553
v -1.78661 -9.48159 -0.353553
v -3.73967 -8.7361 4.37114e-08
v -1.7441 -9.34145 4.37114e-08
v -3.78218 -8.87624 0.353553
v -1.78661 -9.48159 0.353553
v -3.88481 -9.21457 0.5
v -1.88924 -9.81992 0.5
v -3.98744 -9.5529 0.353553
v -1.99187 -10.1582 0.353553
v -2.0615 -10.293 0
v 0.0138229 -10.4974 0
v -2.04714 -10.1473 -0.353553
v 0.0281772 -10.3517 -0.353553
v -2.01249 -9.7954 -0.5
v 0.0628314 -9.9998 -0.5
v -1.97783 -9.44355 -0.353553
v 0.0974857 -9.64795 -0.353553
v -1.96348 -9.29781 4.37114e-08
v 0.11184 -9.50221 4.37114e-08
v -1.97783 -9.44355 0.353553
v 0.0974857 -9.64795 0.353553
v -2.01249 -9.7954 0.5
v 0.0628314 -9.9998 0.5
v -2.04714 -10.1473 0.353553
v 0.0281772 -10.3517 0.353553
v 4.00441 -9.70362 0
v 5.84353 -8.72059 0
v 3.93537 -9.57446 -0.353553
v 5.7745 -8.59143 -0.353553
v 3.76871 -9.26266 -0.5
v 5.60784 -8.27962 -0.5
v 3.60205 -8.95085 -0.353553
v 5.44117 -7.96782 -0.353553
v 3.53301 -8.8217 4.37114e-08
v 5.37214 -7.83866 4.37114e-08
v 3.60205 -8.95085 0.353553
v 5.44117 -7.96782 0.353553
v 3.76871 -9.26266 0.5
v 5.60784 -8.27962 0.5
v 3.93537 -9.57446 0.353553
v 5.7745 -8.59143 0.353553
v 5.82055 -8.73594 0
v 7.43255 -7.413 0
v 5.72764 -8.62274 -0.353553
v 7.33965 -7.2998 -0.353553
v 5.50335 -8.34944 -0.5
v 7.11536 -7.0265 -0.5
v 5.27906 -8.07614 -0.353553
v 6.89107 -6.7532 -0.353553
v 5.18615 -7.96293 4.37114e-08
v 6.79816 -6.63999 4.37114e-08
v 5.27906 -8.07614 0.353553
v 6.89107 -6.7532 0.353553
v 5.50335 -8.34944 0.5
v 7.11536 -7.0265 0.5
v 5.72764 -8.62274 0.353553
v 7.33965 -7.2998 0.353553
v 9.69304 -4.02995 0
v 10.2984 -2.03438 0
v 9.5529 -3.98744 -0.353553
v 10.1582 -1.99187 -0.353553
v 9.21457 -3.88481 -0.5
v 9.81992 -1.88924 -0.5
v 8.87624 -3.78218 -0.353553
v 9.48159 -1.78661 -0.353553
v 8.7361 -3.73967 4.37114e-08
v 9.34145 -1.7441 4.37114e-08
v 8.87624 -3.78218 0.353553
v 9.48159 -1.78661 0.353553
v 9.21457 -3.88481 0.5
v 9.81992 -1.88924 0.5
v 9.5529 -3.98744 0.353553
v 10.1582 -1.99187 0.353553
v 10.293 -2.0615 0
v 10.4974 0.0138229 0
v 10.1473 -2.04714 -0.353553
v 10.3517 0.0281772 -0.353553
v 9.7954 -2.01249 -0.5
v 9.9998 0.0628314 -0.5
v 9.44355 -1.97783 -0.353553
v 9.64795 0.0974857 -0.353553
v 9.29781 -1.96348 4.37114e-08
v 9.50221 0.11184 4.37114e-08
v 9.44355 -1.97783 0.353553
v 9.64795 0.0974857 0.353553
v 9.7954 -2.01249 0.5
v 9.9998 0.0628314 0.5
v 10.1473 -2.04714 0.353553
v 10.3517 0.0281772 0.353553

vn 0.881921 0.471397 -0
vn 0.881921 0.471397 -0
vn 0.623613 0.333328 -0.707107
vn 0.623613 0.333328 -0.707107
vn -3.855e-08 -2.06054e-08 -1
vn -3.855e-08 -2.06054e-08 -1
vn -0.623613 -0.333328 -0.707107
vn -0.623613 -0.333328 -0.707107
vn -0.881921 -0.471397 8.74228e-08
vn -0.881921 -0.471397 8.74228e-08
vn -0.623613 -0.333328 0.707107
vn -0.623613 -0.333328 0.707107
vn 1.05168e-08 5.62135e-09 1
vn 1.05168e-08 5.62135e-09 1
vn 0.623613 0.333328 0.707107
vn 0.623613 0.333328 0.707107
vn 0.77301 0.634393 -0
vn 0.77301 0.634393 -0
vn 0.546601 0.448584 -0.707107
vn 0.546601 0.448584 -0.707107
vn -3.37894e-08 -2.77302e-08 -1
vn -3.37894e-08 -2.77302e-08 -1
vn -0.546601 -0.448584 -0.707107
vn -0.546601 -0.448584 -0.707107
vn -0.77301 -0.634393 8.74228e-08
vn -0.77301 -0.634393 8.74228e-08
vn -0.546601 -0.448584 0.707107
vn -0.546601 -0.448584 0.707107
vn 9.21806e-09 7.56507e-09 1
vn 9.21806e-09 7.56507e-09 1
vn 0.546601 0.448584 0.707107
vn 0.546601 0.448584 0.707107
vn 0.290285 0.95694 -0
vn 0.290285 0.95694 -0
vn 0.205262 0.676659 -0.707107
vn 0.205262 0.676659 -0.707107
vn -1.26887e-08 -4.18292e-08 -1
vn -1.26887e-08 -4.18292e-08 -1
vn -0.205262 -0.676659 -0.707107
vn -0.205262 -0.676659 -0.707107
vn -0.290285 -0.95694 8.74228e-08
vn -0.290285 -0.95694 8.74228e-08
vn -0.205262 -0.676659 0.707107
vn -0.205262 -0.676659 0.707107
vn 3.46161e-09 1.14114e-08 1
vn 3.46161e-09 1.14114e-08 1
vn 0.205262 0.676659 0.707107
vn 0.205262 0.676659 0.707107
vn 0.0980171 0.995185 -0
vn 0.0980171 0.995185 -0
vn 0.0693085 0.703702 -0.707107
vn 0.0693085 0.703702 -0.707107
vn -4.28446e-09 -4.35009e-08 -1
vn -4.28446e-09 -4.35009e-08 -1
vn -0.0693085 -0.703702 -0.707107
vn -0.0693085 -0.703702 -0.707107
vn -0.0980171 -0.995185 8.74228e-08
vn -0.0980171 -0.995185 8.74228e-08
vn -0.0693085 -0.703702 0.707107
vn -0.0693085 -0.703702 0.707107
vn 1.16884e-09 1.18675e-08 1
vn 1.16884e-09 1.18675e-08 1
vn 0.0693085 0.703702 0.707107
vn 0.0693085 0.703702 0.707107
vn -0.471397 0.881921 0
vn -0.471397 0.881921 0
vn -0.333328 0.623613 -0.707107
vn -0.333328 0.623613 -0.707107
vn 2.06054e-08 -3.855e-08 -1
vn 2.06054e-08 -3.855e-08 -1
vn 0.333328 -0.623613 -0.707107
vn 0.333328 -0.623613 -0.707107
vn 0.471397 -0.881921 8.74228e-08
vn 0.471397 -0.881921 8.74228e-08
vn 0.333328 -0.623613 0.707107
vn 0.333328 -0.623613 0.707107
vn -5.62135e-09 1.05168e-08 1
vn -5.62135e-09 1.05168e-08 1
vn -0.333328 0.623613 0.707107
vn -0.333328 0.623613 0.707107
vn -0.634393 0.77301 0
vn -0.634393 0.77301 0
vn -0.448584 0.546601 -0.707107
vn -0.448584 0.546601 -0.707107
vn 2.77302e-08 -3.37894e-08 -1
vn 2.77302e-08 -3.37894e-08 -1
vn 0.448584 -0.546601 -0.707107
vn 0.448584 -0.546601 -0.707107
vn 0.634393 -0.77301 8.74228e-08
vn 0.634393 -0.77301 8.74228e-08
vn 0.448584 -0.546601 0.707107
vn 0.448584 -0.546601 0.707107
vn -7.56507e-09 9.21806e-09 1
vn -7.56507e-09 9.21806e-09 1
vn -0.448584 0.546601 0.707107
vn -0.448584 0.546601 0.707107
vn -0.95694 0.290285 0
vn -0.95694 0.290285 0
vn -0.676659 0.205262 -0.707107
vn -0.676659 0.205262 -0.707107
vn 4.18292e-08 -1.26887e-08 -1
vn 4.18292e-08 -1.26887e-08 -1
vn 0.676659 -0.205262 -0.707107
vn 0.676659 -0.205262 -0.707107
vn 0.95694 -0.290285 8.74228e-08
vn 0.95694 -0.290285 8.74228e-08
vn 0.676659 -0.205262 0.707107
vn 0.676659 -0.205262 0.707107
vn -1.14114e-08 3.46161e-09 1
vn -1.14114e-08 3.46161e-09 1
vn -0.676659 0.205262 0.707107
vn -0.676659 0.205262 0.707107
vn -0.995185 0.0980171 0
vn -0.995185 0.0980171 0
vn -0.703702 0.0693085 -0.707107
vn -0.703702 0.0693085 -0.707107
vn 4.35009e-08 -4.28446e-09 -1
vn 4.35009e-08 -4.28446e-09 -1
vn 0.703702 -0.0693085 -0.707107
vn 0.703702 -0.0693085 -0.707107
vn 0.995185 -0.0980171 8.74228e-08
vn 0.995185 -0.0980171 8.74228e-08
vn 0.703702 -0.0693085 0.707107
vn 0.703702 -0.0693085 0.707107
vn -1.18675e-08 1.16884e-09 1
vn -1.18675e-08 1.16884e-09 1
vn -0.703702 0.0693085 0.707107
vn -0.703702 0.0693085 0.707107
vn -0.881921 -0.471397 0
vn -0.881921 -0.471397 0
vn -0.623613 -0.333328 -0.707107
vn -0.623613 -0.333328 -0.707107
vn 3.855e-08 2.06054e-08 -1
vn 3.855e-08 2.06054e-08 -1
vn 0.623613 0.333328 -0.707107
vn 0.623613 0.333328 -0.707107
vn 0.881921 0.471397 8.74228e-08
vn 0.881921 0.471397 8.74228e-08
vn 0.623613 0.333328 0.707107
vn 0.623613 0.333328 0.707107
vn -1.05168e-08 -5.62135e-09 1
vn -1.05168e-08 -5.62135e-09 1
vn -0.623613 -0.333328 0.707107
vn -0.623613 -0.333328 0.707107
vn -0.77301 -0.634393 0
vn -0.77301 -0.634393 0
vn -0.546601 -0.448584 -0.707107
vn -0.546601 -0.448584 -0.707107
vn 3.37894e-08 2.77302e-08 -1
vn 3.37894e-08 2.77302e-08 -1
vn 0.546601 0.448584 -0.707107
vn 0.546601 0.448584 -0.707107
vn 0.77301 0.634393 8.74228e-08
vn 0.77301 0.634393 8.74228e-08
vn 0.546601 0.448584 0.707107
vn 0.546601 0.448584 0.707107
vn -9.21806e-09 -7.56507e-09 1
vn -9.21806e-09 -7.56507e-09 1
vn -0.546601 -0.448584 0.707107
vn -0.546601 -0.448584 0.707107
vn -0.290285 -0.95694 0
vn -0.290285 -0.95694 0
vn -0.205262 -0.676659 -0.707107
vn -0.205262 -0.676659 -0.707107
vn 1.26887e-08 4.18292e-08 -1
vn 1.26887e-08 4.18292e-08 -1
vn 0.205262 0.676659 -0.707107
vn 0.205262 0.676659 -0.707107
vn 0.290285 0.95694 8.74228e-08
vn 0.290285 0.95694 8.74228e-08
vn 0.205262 0.676659 0.707107
vn 0.205262 0.676659 0.707107
vn -3.46161e-09 -1.14114e-08 1
vn -3.46161e-09 -1.14114e-08 1
vn -0.205262 -0.676659 0.707107
vn -0.205262 -0.676659 0.707107
vn -0.0980171 -0.995185 0
vn -0.0980171 -0.995185 0
vn -0.0693085 -0.703702 -0.707107
vn -0.0693085 -0.703702 -0.707107
vn 4.28446e-09 4.35009e-08 -1
vn 4.28446e-09 4.35009e-08 -1
vn 0.0693085 0.703702 -0.707107
vn 0.0693085 0.703702 -0.707107
vn 0.0980171 0.995185 8.74228e-08
vn 0.0980171 0.995185 8.74228e-08
vn 0.0693085 0.703702 0.707107
vn 0.0693085 0.703702 0.707107
vn -1.16884e-09 -1.18675e-08 1
vn -1.16884e-09 -1.18675e-08 1
vn -0.0693085 -0.703702 0.707107
vn -0.0693085 -0.703702 0.707107
vn 0.471397 -0.881921 0
vn 0.471397 -0.881921 0
vn 0.333328 -0.623613 -0.707107
vn 0.333328 -0.623613 -0.707107
vn -2.06054e-08 3.855e-08 -1
vn -2.06054e-08 3.855e-08 -1
vn -0.333328 0.623613 -0.707107
vn -0.333328 0.623613 -0.707107
vn -0.471397 0.881921 8.74228e-08
vn -0.471397 0.881921 8.74228e-08
vn -0.333328 0.623613 0.707107
vn -0.333328 0.623613 0.707107
vn 5.62135e-09 -1.05168e-08 1
vn 5.62135e-09 -1.05168e-08 1
vn 0.333328 -0.623613 0.707107
vn 0.333328 -0.623613 0.707107
vn 0.634393 -0.77301 0
vn 0.634393 -0.77301 0
vn 0.448584 -0.546601 -0.707107
vn 0.448584 -0.546601 -0.707107
vn -2.77302e-08 3.37894e-08 -1
vn -2.77302e-08 3.37894e-08 -1
vn -0.448584 0.546601 -0.707107
vn -0.448584 0.546601 -0.707107
vn -0.634393 0.77301 8.74228e-08
vn -0.634393 0.77301 8.74228e-08
vn -0.448584 0.546601 0.707107
vn -0.448584 0.546601 0.707107
vn 7.56507e-09 -9.21806e-09 1
vn 7.56507e-09 -9.21806e-09 1
vn 0.448584 -0.546601 0.707107
vn 0.448584 -0.546601 0.707107
vn 0.95694 -0.290285 0
vn 0.95694 -0.290285 0
vn 0.676659 -0.205262 -0.707107
vn 0.676659 -0.205262 -0.707107
vn -4.18292e-08 1.26887e-08 -1
vn -4.18292e-08 1.26887e-08 -1
vn -0.676659 0.205262 -0.707107
vn -0.676659 0.205262 -0.707107
vn -0.95694 0.290285 8.74228e-08
vn -0.95694 0.290285 8.74228e-08
vn -0.676659 0.205262 0.707107
vn -0.676659 0.205262 0.707107
vn 1.14114e-08 -3.46161e-09 1
vn 1.14114e-08 -3.46161e-09 1
vn 0.676659 -0.205262 0.707107
vn 0.676659 -0.205262 0.707107
vn 0.995185 -0.0980171 0
vn 0.995185 -0.0980171 0
vn 0.703702 -0.0693085 -0.707107
vn 0.703702 -0.0693085 -0.707107
vn -4.35009e-08 4.28446e-09 -1
vn -4.35009e-08 4.28446e-09 -1
vn -0.703702 0.0693085 -0.707107
vn -0.703702 0.0693085 -0.707107
vn -0.995185 0.0980171 8.74228e-08
vn -0.995185 0.0980171 8.74228e-08
vn -0.703702 0.0693085 0.707107
vn -0.703702 0.0693085 0.707107
vn 1.18675e-08 -1.16884e-09 1
vn 1.18675e-08 -1.16884e-09 1
vn 0.703702 -0.0693085 0.707107
vn 0.703702 -0.0693085 0.707107

f 1//1 3//3 2//2
f 2//2 3//3 4//4
f 3//3 5//5 4//4
f 4//4 5//5 6//6
f 5//5 7//7 6//6
f 6//6 7//7 8//8
f 7//7 9//9 8//8
f 8//8 9//9 10//10
f 9//9 11//11 10//10
f 10//10 11//11 12//12
f 11//11 13//13 12//12
f 12//12 13//13 14//14
f 13//13 15//15 14//14
f 14//14 15//15 16//16
f 15//15 1//1 16//16
f 16//16 1//1 2//2
f 17//17 19//19 18//18
f 18//18 19//19 20//20
f 19//19 21//21 20//20
f 20//20 21//21 22//22
f 21//21 23//23 22//22
f 22//22 23//23 24//24
f 23//23 25//25 24//24
f 24//24 25//25 26//26
f 25//25 27//27 26//26
f 26//26 27//27 28//28
f 27//27 29//29 28//28
f 28//28 29//29 30//30
f 29//29 31//31 30//30
f 30//30 31//31 32//32
f 31//31 17//17 32//32
f 32//32 17//17 18//18
f 33//33 35//35 34//34
f 34//34 35//35 36//36
f 35//35 37//37 36//36
f 36//36 37//37 38//38
f 37//37 39//39 38//38
f 38//38 39//39 40//40
f 39//39 41//41 40//40
f 40//40 41//41 42//42
f 41//41 43//43 42//42
f 42//42 43//43 44//44
f 43//43 45//45 44//44
f 44//44 45//45 46//46
f 45//45 47//47 46//46
f 46//46 47//47 48//48
f 47//47 33//33 48//48
f 48//48 33//33 34//34
f 49//49 51//51 50//50
f 50//50 51//51 52//52
f 51//51 53//53 52//52
f 52//52 53//53 54//54
f 53//53 55//55 54//54
f 54//54 55//55 56//56
f 55//55 57//57 56//56
f 56//56 57//57 58//58
f 57//57 59//59 58//58
f 58//58 59//59 60//60
f 59//59 61//61 60//60
f 60//60 61//61 62//62
f 61//61 63//63 62//62
f 62//62 63//63 64//64
f 63//63 49//49 64//64
f 64//64 49//49 50//50
f 65//65 67//67 66//66
f 66//66 67//67 68//68
f 67//67 69//69 68//68
f 68//68 69//69 70//70
f 69//69 71//71 70//70
f 70//70 71//71 72//72
f 71//71 73//73 72//72
f 72//72 73//73 74//74
f 73//73 75//75 74//74
f 74//74 75//75 76//76
f 75//75 77//77 76//76
f 76//76 77//77 78//78
f 77//77 79//79 78//78
f 78//78 79//79 80//80
f 79//79 65//65 80//80
f 80//80 65//65 66//66
f 81//81 83//83 82//82
f 82//82 83//83 84//84
f 83//83 85//85 84//84
f 84//84 85//85 86//86
f 85//85 87//87 86//86
f 86//86 87//87 88//88
f 87//87 89//89 88//88
f 88//88 89//89 90//90
f 89//89 91//91 90//90
f 90//90 91//91 92//92
f 91//91 93//93 92//92
f 92//92 93//93 94//94
f 93//93 95//95 94//94
f 94//94 95//95 96//96
f 95//95 81//81 96//96
f 96//96 81//81 82//82
f 97//97 99//99 98//98
f 98//98 99//99 100//100
f 99//99 101//101 100//100
f 100//100 101//101 102//102
f 101//101 103//103 102//102
f 102//102 103//103 104//104
f 103//103 105//105 104//104
f 104//104 105//105 106//106
f 105//105 107//107 106//106
f 106//106 107//107 108//108
f 107//107 109//109 108//108
f 108//108 109//109 110//110
f 109//109 111//111 110//110
f 110//110 111//111 112//112
f 111//111 97//97 112//112
f 112//112 97//97 98//98
f 113//113 115//115 114//114
f 114//114 115//115 116//116
f 115//115 117//117 116//116
f 116//116 117//117 118//118
f 117//117 119//119 118//118
f 118//118 119//119 120//120
f 119//119 121//121 120//120
f 120//120 121//121 122//122
f 121//121 123//123 122//122
f 122//122 123//123 124//124
f 123//123 125//125 124//124
f 124//124 125//125 126//126
f 125//125 127//127 126//126
f 126//126 127//127 128//128
f 127//127 113//113 128//128
f 128//128 113//113 114//114
f 129//129 131//131 130//130
f 130//130 131//131 132//132
f 131//131 133//133 132//132
f 132//132 133//133 134//134
f 133//133 135//135 134//134
f 134//134 135//135 136//136
f 135//135 137//137 136//136
f 136//136 137//137 138//138
f 137//137 139//139 138//138
f 138//138 139//139 140//140
f 139//139 141//141 140//140
f 140//140 141//141 142//142
f 141//141 143//143 142//142
f 142//142 143//143 144//144
f 143//143 129//129 144//144
f 144//144 129//129 130//130
f 145//145 147//147 146//146
f 146//146 147//147 148//148
f 147//147 149//149 148//148
f 148//148 149//149 150//150
f 149//149 151//151 150//150
f 150//150 151//151 152//152
f 151//151 153//153 152//152
f 152//152 153//153 154//154
f 153//153 155//155 154//154
f 154//154 155//155 156//156
f 155//155 157//157 156//156
f 156//156 157//157 158//158
f 157//157 159//159 158//158
f 158//158 159//159 160//160
f 159//159 145//145 160//160
f 160//160 145//145 146//146
f 161//161 163//163 162//162
f 162//162 163//163 164//164
f 163//163 165//165 164//164
f 164//164 165//165 166//166
f 165//165 167//167 166//166
f 166//166 167//167 168//168
f 167//167 169//169 168//168
f 168//168 169//169 170//170
f 169//169 171//171 170//170
f 170//170 171//171 172//172
f 171//171 173//173 172//172
f 172//172 173//173 174//174
f 173//173 175//175 174//174
f 174//174 175//175 176//176
f 175//175 161//161 176//176
f 176//176 161//161 162//162
f 177//177 179//179 178//178
f 178//178 179//179 180//180
f 179//179 181//181 180//180
f 180//180 181//181 182//182
f 181//181 183//183 182//182
f 182//182 183//183 184//184
f 183//183 185//185 184//184
f 184//184 185//185 186//186
f 185//185 187//187 186//186
f 186//186 187//187 188//188
f 187//187 189//189 188//188
f 188//188 189//189 190//190
f 189//189 191//191 190//190
f 190//190 191//191 192//192
f 191//191 177//177 192//192
f 192//192 177//177 178//178
f 193//193 195//195 194//194
f 194//194 195//195 196//196
f 195//195 197//197 196//196
f 196//196 197//197 198//198
f 197//197 199//199 198//198
f 198//198 199//199 200//200
f 199//199 201//201 200//200
f 200//200 201//201 202//202
f 201//201 203//203 202//202
f 202//202 203//203 204//204
f 203//203 205//205 204//204
f 204//204 205//205 206//206
f 205//205 207//207 206//206
f 206//206 207//207 208//208
f 207//207 193//193 208//208
f 208//208 193//193 194//194
f 209//209 211//211 210//210
f 210//210 211//211 212//212
f 211//211 213//213 212//212
f 212//212 213//213 214//214
f 213//213 215//215 214//214
f 214//214 215//215 216//216
f 215//215 217//217 216//216
f 216//216 217//217 218//218
f 217//217 219//219 218//218
f 218//218 219//219 220//220
f 219//219 221//221 220//220
f 220//220 221//221 222//222
f 221//221 223//223 222//222
f 222//222 223//223 224//224
f 223//223 209//209 224//224
f 224//224 209//209 210//210
f 225//225 227//227 226//226
f 226//226 227//227 228//228
f 227//227 229//229 228//228
f 228//228 229//229 230//230
f 229//229 231//231 230//230
f 230//230 231//231 232//232
f 231//231 233//233 232//232
f 232//232 233//233 234//234
f 233//233 235//235 234//234
f 234//234 235//235 236//236
f 235//235 237//237 236//236
f 236//236 237//237 238//238
f 237//237 239//239 238//238
f 238//238 239//239 240//240
f 239//239 225//225 240//240
f 240//240 225//225 226//226
f 241//241 243//243 242//242
f 242//242 243//243 244//244
f 243//243 245//245 244//244
f 244//244 245//245 246//246
f 245//245 247//247 246//246
f 246//246 247//247 248//248
f 247//247 249//249 248//248
f 248//248 249//249 250//250
f 249//249 251//251 250//250
f 250//250 251//251 252//252
f 251//251 253//253 252//252
f 252//252 253//253 254//254
f 253//253 255//255 254//254
f 254//254 255//255 256//256
f 255//255 241//241 256//256
f 256//256 241//241 242//242

