# Wavefront OBJ

mtllib catflaps_sup_public_accessible_0_tri.mtl

o catflaps_sup_public_accessible_0_tri_0

s 1

usemtl catflaps_sup_public_accessible_0_tri_0

v 81.2498 77.0411 -9.95
v 81.2498 77.0411 -9.75
v 81.3968 77.0113 -9.65
v 81.6908 76.9516 -9.65
v 81.8378 76.9218 -9.75
v 81.8378 76.9218 -9.95
v 81.6908 76.9516 -10.05
v 81.3968 77.0113 -10.05
v 81.4335 77.9461 -9.95
v 81.4335 77.9461 -9.75
v 81.5881 77.9538 -9.65
v 81.8974 77.9692 -9.65
v 82.052 77.9769 -9.75
v 82.052 77.9769 -9.95
v 81.8974 77.9692 -10.05
v 81.5881 77.9538 -10.05
v 81.1819 78.789 -9.95
v 81.1819 78.789 -9.75
v 81.3206 78.8462 -9.65
v 81.5981 78.9608 -9.65
v 81.7368 79.018 -9.75
v 81.7368 79.018 -9.95
v 81.5981 78.9608 -10.05
v 81.3206 78.8462 -10.05
v 81.0834 79.0525 -9.95
v 81.0834 79.0525 -9.75
v 81.2161 79.1259 -9.65
v 81.4815 79.2728 -9.65
v 81.6142 79.3463 -9.75
v 81.6142 79.3463 -9.95
v 81.4815 79.2728 -10.05
v 81.2161 79.1259 -10.05
v 81.0834 79.0525 -9.95
v 81.0834 79.0525 -9.75
v 81.2161 79.1259 -9.65
v 81.4815 79.2728 -9.65
v 81.6142 79.3463 -9.75
v 81.6142 79.3463 -9.95
v 81.4815 79.2728 -10.05
v 81.2161 79.1259 -10.05
v 80.6566 79.6097 -9.95
v 80.6566 79.6097 -9.75
v 80.7947 79.6761 -9.65
v 81.0709 79.8089 -9.65
v 81.209 79.8753 -9.75
v 81.209 79.8753 -9.95
v 81.0709 79.8089 -10.05
v 80.7947 79.6761 -10.05
v 80.1735 80.5367 -9.95
v 80.1735 80.5367 -9.75
v 80.321 80.5662 -9.65
v 80.6159 80.625 -9.65
v 80.7634 80.6544 -9.75
v 80.7634 80.6544 -9.95
v 80.6159 80.625 -10.05
v 80.321 80.5662 -10.05
v 80.0207 81.7275 -9.95
v 80.0207 81.7275 -9.75
v 80.1809 81.6575 -9.65
v 80.5014 81.5174 -9.65
v 80.6616 81.4474 -9.75
v 80.6616 81.4474 -9.95
v 80.5014 81.5174 -10.05
v 80.1809 81.6575 -10.05
v 80.8751 82.1387 -9.95
v 80.8751 82.1387 -9.75
v 81.0001 82.0021 -9.65
v 81.2499 81.7287 -9.65
v 81.3749 81.592 -9.75
v 81.3749 81.592 -9.95
v 81.2499 81.7287 -10.05
v 81.0001 82.0021 -10.05
v 80.9336 82.1454 -9.95
v 80.9336 82.1454 -9.75
v 81.0585 82.0087 -9.65
v 81.3084 81.7353 -9.65
v 81.4333 81.5987 -9.75
v 81.4333 81.5987 -9.95
v 81.3084 81.7353 -10.05
v 81.0585 82.0087 -10.05
v 80.8852 82.0915 -9.95
v 80.8852 82.0915 -9.75
v 81.0343 81.9818 -9.65
v 81.3326 81.7623 -9.65
v 81.4818 81.6525 -9.75
v 81.4818 81.6525 -9.95
v 81.3326 81.7623 -10.05
v 81.0343 81.9818 -10.05
v 80.8923 83.0099 -9.95
v 80.8923 83.0099 -9.75
v 81.0415 82.9115 -9.65
v 81.34 82.7148 -9.65
v 81.4893 82.6164 -9.75
v 81.4893 82.6164 -9.95
v 81.34 82.7148 -10.05
v 81.0415 82.9115 -10.05
v 80.8999 83.9857 -9.95
v 80.8999 83.9857 -9.75
v 81.0492 83.8994 -9.65
v 81.3479 83.7269 -9.65
v 81.4972 83.6406 -9.75
v 81.4972 83.6406 -9.95
v 81.3479 83.7269 -10.05
v 81.0492 83.8994 -10.05
v 80.9024 84.3038 -9.95
v 80.9024 84.3038 -9.75
v 81.0517 84.2215 -9.65
v 81.3504 84.0568 -9.65
v 81.4998 83.9745 -9.75
v 81.4998 83.9745 -9.95
v 81.3504 84.0568 -10.05
v 81.0517 84.2215 -10.05
v 80.9024 84.3038 -9.95
v 80.9024 84.3038 -9.75
v 81.0517 84.2215 -9.65
v 81.3504 84.0568 -9.65
v 81.4998 83.9745 -9.75
v 81.4998 83.9745 -9.95
v 81.3504 84.0568 -10.05
v 81.0517 84.2215 -10.05
v 81.4695 84.6681 -9.95
v 81.4695 84.6681 -9.75
v 81.6188 84.5858 -9.65
v 81.9175 84.421 -9.65
v 82.0668 84.3387 -9.75
v 82.0668 84.3387 -9.95
v 81.9175 84.421 -10.05
v 81.6188 84.5858 -10.05
v 82.0446 85.3295 -9.95
v 82.0446 85.3295 -9.75
v 82.194 85.2601 -9.65
v 82.4927 85.1213 -9.65
v 82.6421 85.0519 -9.75
v 82.6421 85.0519 -9.95
v 82.4927 85.1213 -10.05
v 82.194 85.2601 -10.05
v 82.0527 86.2481 -9.95
v 82.0527 86.2481 -9.75
v 82.2024 86.2194 -9.65
v 82.5019 86.162 -9.65
v 82.6517 86.1333 -9.75
v 82.6517 86.1333 -9.95
v 82.5019 86.162 -10.05
v 82.2024 86.2194 -10.05

vn 0.938688 -0.19052 0.287346
vn 0.781125 -0.158539 -0.603912
vn 0.125588 -0.0254891 -0.991755
vn -0.312456 0.0634165 -0.947813
vn -0.938688 0.190515 -0.287346
vn -0.786555 0.15964 0.596528
vn -0.133387 0.0270729 0.990694
vn 0.3071 -0.0623293 0.949634
vn 0.781125 -0.158539 0.603912
vn 0.938691 -0.190521 -0.287336
vn 0.307097 -0.0623287 -0.949635
vn -0.133388 0.0270731 -0.990694
vn -0.786555 0.15964 -0.596528
vn -0.938691 0.190516 0.287336
vn -0.312453 0.0634159 0.947814
vn 0.125589 -0.0254892 0.991755
vn 0.897272 0.335165 0.287344
vn 0.745349 0.278415 -0.605756
vn 0.118421 0.0442339 -0.991978
vn -0.299638 -0.111925 -0.947465
vn -0.897275 -0.335159 -0.287344
vn -0.752794 -0.281192 0.595174
vn -0.129062 -0.0482094 0.990464
vn 0.292311 0.109188 0.95007
vn 0.745349 0.278415 0.605756
vn 0.897271 0.335165 -0.287347
vn 0.292312 0.109188 -0.950069
vn -0.129062 -0.0482093 -0.990464
vn -0.752794 -0.281192 -0.595174
vn -0.897274 -0.335159 0.287347
vn -0.299638 -0.111925 0.947465
vn 0.118421 0.0442338 0.991978
vn 0.76042 0.58241 0.287334
vn 0.635855 0.487003 -0.598763
vn 0.105994 0.0811803 -0.991048
vn -0.250308 -0.191711 -0.948996
vn -0.760423 -0.582405 -0.287334
vn -0.63437 -0.485862 0.601259
vn -0.103848 -0.0795377 0.991408
vn 0.251776 0.192836 0.948379
vn 0.635855 0.487003 0.598763
vn 0.760419 0.582408 -0.287339
vn 0.251777 0.192837 -0.948379
vn -0.103848 -0.0795373 -0.991408
vn -0.63437 -0.485862 -0.601259
vn -0.760422 -0.582404 0.28734
vn -0.250309 -0.191711 0.948995
vn 0.105993 0.0811799 0.991048
vn 0.950034 0.121931 0.287347
vn 0.799586 0.102622 -0.591718
vn 0.141193 0.0181211 -0.989816
vn -0.305531 -0.039211 -0.951375
vn -0.950036 -0.121923 -0.287345
vn -0.784821 -0.100721 0.611483
vn -0.120524 -0.0154679 0.99259
vn 0.319919 0.0410595 0.946555
vn 0.799586 0.102622 0.591718
vn 0.950033 0.121931 -0.287349
vn 0.319918 0.0410593 -0.946555
vn -0.120523 -0.0154679 -0.99259
vn -0.784821 -0.100721 -0.611483
vn -0.950033 -0.121922 0.287352
vn -0.305529 -0.0392108 0.951375
vn 0.141193 0.0181211 0.989816
vn 0.108678 -0.951647 0.287327
vn 0.0907934 -0.794838 -0.599991
vn 0.0150098 -0.131302 -0.991229
vn -0.0359133 0.31418 -0.948684
vn -0.108786 0.951632 -0.287337
vn -0.0908583 0.794828 0.599994
vn -0.0150096 0.131317 0.991227
vn 0.0358976 -0.314181 0.948684
vn 0.0907934 -0.794838 0.599991
vn 0.108678 -0.951651 -0.287315
vn 0.0358975 -0.31418 -0.948684
vn -0.0150096 0.131317 -0.991227
vn -0.0908583 0.794829 -0.599994
vn -0.108786 0.951632 0.287335
vn -0.0359133 0.314179 0.948684
vn 0.01501 -0.131303 0.991229
vn 0.957796 -0.00744765 0.287354
vn 0.799084 -0.00621255 -0.601187
vn 0.130901 -0.00101722 -0.991395
vn -0.317067 0.00246523 -0.9484
vn -0.957796 0.0074447 -0.287353
vn -0.800826 0.00622556 0.598865
vn -0.133412 0.00103762 0.99106
vn 0.315346 -0.00245129 0.948974
vn 0.799084 -0.00621255 0.601187
vn 0.957798 -0.00744767 -0.287346
vn 0.315343 -0.00245127 -0.948975
vn -0.133413 0.00103762 -0.99106
vn -0.800826 0.00622556 -0.598865
vn -0.957798 0.00744472 0.287345
vn -0.317064 0.0024652 0.948401
vn 0.130902 -0.00101723 0.991395
vn 0.957796 -0.00744186 0.287354
vn 0.799079 -0.00620859 -0.601194
vn 0.130902 -0.00101703 -0.991395
vn -0.317063 0.00246316 -0.948401
vn -0.957796 0.00744072 -0.287354
vn -0.80082 0.00622128 0.598872
vn -0.133413 0.00103646 0.99106
vn 0.315343 -0.00245008 0.948975
vn 0.799079 -0.00620859 0.601194
vn 0.957796 -0.00744187 -0.287354
vn 0.315343 -0.00245008 -0.948975
vn -0.133413 0.00103646 -0.99106
vn -0.80082 0.00622128 -0.598872
vn -0.957796 0.00744072 0.287353
vn -0.317063 0.00246317 0.948401
vn 0.130902 -0.00101703 0.991395
vn 0.517626 -0.805916 0.287338
vn 0.432337 -0.673129 -0.599985
vn 0.071426 -0.111208 -0.991227
vn -0.170892 0.266065 -0.948686
vn -0.517632 0.805912 -0.287339
vn -0.432339 0.673117 0.599997
vn -0.0714192 0.111194 0.991229
vn 0.170895 -0.266076 0.948682
vn 0.432337 -0.673129 0.599985
vn 0.517624 -0.805914 -0.287347
vn 0.170897 -0.26608 -0.948681
vn -0.0714191 0.111194 -0.991229
vn -0.432339 0.673117 -0.599997
vn -0.517631 0.805912 0.28734
vn -0.170895 0.266069 0.948685
vn 0.0714255 -0.111208 0.991227
vn 0.95779 -0.00846398 0.287345
vn 0.796813 -0.00704288 -0.604185
vn 0.127895 -0.00113111 -0.991787
vn -0.318963 0.0028212 -0.947763
vn -0.957789 0.0084744 -0.287346
vn -0.802699 0.007101 0.596342
vn -0.136347 0.00120556 0.99066
vn 0.313159 -0.00276851 0.949697
vn 0.796813 -0.00704288 0.604185
vn 0.957786 -0.00846395 -0.287357
vn 0.31316 -0.00276852 -0.949696
vn -0.136346 0.00120555 -0.990661
vn -0.802699 0.007101 -0.596342
vn -0.957786 0.00847437 0.287357
vn -0.318964 0.00282121 0.947763
vn 0.127894 -0.0011311 0.991787

f 1//1 9//9 10//10
f 1//1 10//10 2//2
f 2//2 10//10 11//11
f 2//2 11//11 3//3
f 3//3 11//11 12//12
f 3//3 12//12 4//4
f 4//4 12//12 13//13
f 4//4 13//13 5//5
f 5//5 13//13 14//14
f 5//5 14//14 6//6
f 6//6 14//14 15//15
f 6//6 15//15 7//7
f 7//7 15//15 16//16
f 7//7 16//16 8//8
f 8//8 16//16 9//9
f 8//8 9//9 1//1
f 17//17 25//25 26//26
f 17//17 26//26 18//18
f 18//18 26//26 27//27
f 18//18 27//27 19//19
f 19//19 27//27 28//28
f 19//19 28//28 20//20
f 20//20 28//28 29//29
f 20//20 29//29 21//21
f 21//21 29//29 30//30
f 21//21 30//30 22//22
f 22//22 30//30 31//31
f 22//22 31//31 23//23
f 23//23 31//31 32//32
f 23//23 32//32 24//24
f 24//24 32//32 25//25
f 24//24 25//25 17//17
f 33//33 41//41 42//42
f 33//33 42//42 34//34
f 34//34 42//42 43//43
f 34//34 43//43 35//35
f 35//35 43//43 44//44
f 35//35 44//44 36//36
f 36//36 44//44 45//45
f 36//36 45//45 37//37
f 37//37 45//45 46//46
f 37//37 46//46 38//38
f 38//38 46//46 47//47
f 38//38 47//47 39//39
f 39//39 47//47 48//48
f 39//39 48//48 40//40
f 40//40 48//48 41//41
f 40//40 41//41 33//33
f 49//49 57//57 58//58
f 49//49 58//58 50//50
f 50//50 58//58 59//59
f 50//50 59//59 51//51
f 51//51 59//59 60//60
f 51//51 60//60 52//52
f 52//52 60//60 61//61
f 52//52 61//61 53//53
f 53//53 61//61 62//62
f 53//53 62//62 54//54
f 54//54 62//62 63//63
f 54//54 63//63 55//55
f 55//55 63//63 64//64
f 55//55 64//64 56//56
f 56//56 64//64 57//57
f 56//56 57//57 49//49
f 65//65 73//73 74//74
f 65//65 74//74 66//66
f 66//66 74//74 75//75
f 66//66 75//75 67//67
f 67//67 75//75 76//76
f 67//67 76//76 68//68
f 68//68 76//76 77//77
f 68//68 77//77 69//69
f 69//69 77//77 78//78
f 69//69 78//78 70//70
f 70//70 78//78 79//79
f 70//70 79//79 71//71
f 71//71 79//79 80//80
f 71//71 80//80 72//72
f 72//72 80//80 73//73
f 72//72 73//73 65//65
f 81//81 89//89 90//90
f 81//81 90//90 82//82
f 82//82 90//90 91//91
f 82//82 91//91 83//83
f 83//83 91//91 92//92
f 83//83 92//92 84//84
f 84//84 92//92 93//93
f 84//84 93//93 85//85
f 85//85 93//93 94//94
f 85//85 94//94 86//86
f 86//86 94//94 95//95
f 86//86 95//95 87//87
f 87//87 95//95 96//96
f 87//87 96//96 88//88
f 88//88 96//96 89//89
f 88//88 89//89 81//81
f 97//97 105//105 106//106
f 97//97 106//106 98//98
f 98//98 106//106 107//107
f 98//98 107//107 99//99
f 99//99 107//107 108//108
f 99//99 108//108 100//100
f 100//100 108//108 109//109
f 100//100 109//109 101//101
f 101//101 109//109 110//110
f 101//101 110//110 102//102
f 102//102 110//110 111//111
f 102//102 111//111 103//103
f 103//103 111//111 112//112
f 103//103 112//112 104//104
f 104//104 112//112 105//105
f 104//104 105//105 97//97
f 113//113 121//121 122//122
f 113//113 122//122 114//114
f 114//114 122//122 123//123
f 114//114 123//123 115//115
f 115//115 123//123 124//124
f 115//115 124//124 116//116
f 116//116 124//124 125//125
f 116//116 125//125 117//117
f 117//117 125//125 126//126
f 117//117 126//126 118//118
f 118//118 126//126 127//127
f 118//118 127//127 119//119
f 119//119 127//127 128//128
f 119//119 128//128 120//120
f 120//120 128//128 121//121
f 120//120 121//121 113//113
f 129//129 137//137 138//138
f 129//129 138//138 130//130
f 130//130 138//138 139//139
f 130//130 139//139 131//131
f 131//131 139//139 140//140
f 131//131 140//140 132//132
f 132//132 140//140 141//141
f 132//132 141//141 133//133
f 133//133 141//141 142//142
f 133//133 142//142 134//134
f 134//134 142//142 143//143
f 134//134 143//143 135//135
f 135//135 143//143 144//144
f 135//135 144//144 136//136
f 136//136 144//144 137//137
f 136//136 137//137 129//129

