# Wavefront OBJ

mtllib corridors_inf_public_accessible_floor_tri.mtl

o corridors_inf_public_accessible_floor_tri_0

s 1

usemtl corridors_inf_public_accessible_floor_tri_0

v 77.3573 54.6773 -15
v 57.7492 70.7907 -15
v 59.4485 71.231 -15
v 59.5655 71.6459 -15
v 60.2033 70.7069 -15
v 61.278 70.89 -15
v 62.377 68.4757 -15
v 63.8203 69.3563 -15
v 67.4981 65.4898 -15
v 68.5365 66.8084 -15
v 68.2694 65.0981 -15
v 68.3146 64.5276 -15
v 59.5655 71.6459 -15
v 57.5274 71.4936 -15
v 57.7492 70.7907 -15
v 56.9702 72.4702 -15
v 56.7407 69.8219 -15
v 57.0353 73.2967 -15
v 56.4449 72.8056 -15
v 57.7978 73.3993 -15
v 58.2138 72.9866 -15
v 58.4444 75.1968 -15
v 58.5172 74.207 -15
v 59.2664 76.191 -15
v 59.4154 75.2111 -15
v 59.7045 76.0211 -15
v 59.8303 74.7973 -15
v 60.1161 75.6801 -15
v 71.4738 64.9138 -15
v 78.5027 61.3 -15
v 72.6071 66.1463 -15
v 73.7246 65.6674 -15
v 72.8542 91.3534 -15
v 73.5527 80.2219 -15
v 73.6531 91.3876 -15
v 81.9917 71.9505 -15
v 81.8769 80.2219 -15
v 81.1806 76.0409 -15
v 81.1532 76.8652 -15
v 80.2669 76.1281 -15
v 79.689 77.0164 -15
v 77.2865 77.034 -15
v 75.9284 78.7344 -15
v 73.6187 79.2387 -15
v 73.5527 80.2219 -15
v 73.7246 65.6674 -15
v 80.0564 60.0112 -15
v 79.2586 58.7257 -15
v 80.0761 57.2449 -15
v 78.8492 58.1376 -15
v 78.4099 55.7056 -15
v 78.0426 57.054 -15
v 77.5328 56.3367 -15
v 77.1146 56.5376 -15
v 79.5762 61.7293 -15
v 80.5516 61.2504 -15
v 80.8275 61.7381 -15
v 78.1196 62.9497 -15
v 78.5027 61.3 -15
v 78.8216 60.7549 -15
v 79.1668 60.9999 -15
v 75.7958 64.0884 -15
v 73.7246 65.6674 -15
v 78.5027 61.3 -15
v 78.1196 62.9497 -15
v 69.9555 64.5772 -15
v 71.4738 64.9138 -15
v 72.6071 66.1463 -15
v 68.5365 66.8084 -15
v 68.3146 64.5276 -15
v 82.3602 63.0997 -15
v 82.1229 62.9618 -15
v 82.1638 59.8358 -15
v 81.836 62.548 -15
v 81.8029 61.2393 -15
v 81.6441 62.1916 -15
v 81.5469 61.4071 -15
v 82.3602 63.0997 -15
v 82.1638 59.8358 -15
v 83.201 62.6904 -15
v 82.6217 63.0446 -15
v 82.1638 59.8358 -15
v 81.8029 61.2393 -15
v 81.6132 60.9491 -15
v 81.3869 61.0815 -15
v 81.2623 60.8531 -15
v 81.0703 58.249 -15
v 80.8959 60.1933 -15
v 79.1668 60.9999 -15
v 80.0564 60.0112 -15
v 80.0761 57.2449 -15
v 81.0703 58.249 -15
v 81.2623 60.8531 -15
v 77.5328 56.3367 -15
v 76.9193 55.625 -15
v 77.3033 54.7257 -15
v 77.3573 54.6773 -15
v 78.4099 55.7056 -15
v 57.0353 73.2967 -15
v 56.9702 72.4702 -15
v 57.7978 73.3993 -15
v 58.4444 75.1968 -15
v 55.6262 67.497 -15
v 57.2317 69.3309 -15
v 56.7407 69.8219 -15
v 56.4449 72.8056 -15
v 55.102 69.3971 -15
v 54.3153 67.0048 -15
v 55.102 69.3971 -15
v 53.2019 68.0531 -15
v 54.3153 67.0048 -15
v 52.0212 66.4917 -15
v 51.4651 64.9734 -15
v 49.7934 65.6939 -15
v 46.4058 64.681 -15
v 45.7923 65.2934 -15
v 44.2629 64.2098 -15
v 43.9341 63.9273 -15
v 43.0193 63.7596 -15
v 43.7917 63.2928 -15
v 46.4058 64.681 -15
v 44.2629 64.2098 -15
v 77.3574 54.6771 -15
v 77.3573 54.6773 -15
v 77.3572 54.6772 -15
v 43.7917 63.2928 -15
v 43.0193 63.7596 -15
v 42.9101 63.6217 -15
v 58.5172 74.207 -15
v 58.2138 72.9866 -15
v 58.9332 73.7932 -15
v 80.0564 60.0112 -15
v 79.1668 60.9999 -15
v 78.8216 60.7549 -15
v 62.377 68.4757 -15
v 60.2033 70.7069 -15
v 60.0013 69.8793 -15
v 81.9917 71.9505 -15
v 81.1806 76.0409 -15
v 81.1376 71.9096 -15
v 81.1532 76.8652 -15
v 81.8769 80.2219 -15
v 81.1442 80.255 -15

vn 0 0 0
vn 0 0 1
vn 0 0 1
vn 0 0 1
vn 0 0 1
vn 0 0 1
vn 0 0 1
vn 0 0 1
vn 0 0 1
vn 0 0 1
vn 0 0 1
vn 0 0 1
vn 0 0 1
vn 0 0 1
vn 0 0 1
vn 0 0 1
vn 0 0 1
vn 0 0 1
vn 0 0 1
vn 0 0 1
vn 0 0 1
vn 0 0 1
vn 0 0 1
vn 0 0 1
vn 0 0 1
vn 0 0 1
vn 0 0 1
vn 0 0 1
vn 0 0 1
vn 0 0 1
vn 0 0 1
vn 0 0 1
vn 0 0 1
vn 0 0 1
vn 0 0 1
vn 0 0 1
vn 0 0 1
vn 0 0 1
vn 0 0 1
vn 0 0 1
vn 0 0 1
vn 0 0 1
vn 0 0 1
vn 0 0 1
vn 0 0 1
vn 0 0 1
vn 0 0 1
vn 0 0 1
vn 0 0 1
vn 0 0 1
vn 0 0 1
vn 0 0 1
vn 0 0 1
vn 0 0 1
vn 0 0 1
vn 0 0 1
vn 0 0 1
vn 0 0 1
vn 0 0 1
vn 0 0 1
vn 0 0 1
vn 0 0 1
vn 0 0 1
vn 0 0 1
vn 0 0 1
vn 0 0 1
vn 0 0 1
vn 0 0 1
vn 0 0 1
vn 0 0 1
vn 0 0 1
vn 0 0 1
vn 0 0 1
vn 0 0 1
vn 0 0 1
vn 0 0 1
vn 0 0 1
vn 0 0 1
vn 0 0 1
vn 0 0 1
vn 0 0 1
vn 0 0 1
vn 0 0 1
vn 0 0 1
vn 0 0 1
vn 0 0 1
vn 0 0 1
vn 0 0 1
vn 0 0 1
vn 0 0 1
vn 0 0 1
vn 0 0 1
vn 0 0 1
vn 0 0 1
vn 0 0 1
vn 0 0 1
vn 0 0 1
vn 0 0 1
vn 0 0 1
vn 0 0 1
vn 0 0 1
vn 0 0 1
vn 0 0 1
vn 0 0 1
vn 0 0 1
vn 0 0 1
vn 0 0 1
vn 0 0 1
vn 0 0 1
vn 0 0 1
vn 0 0 1
vn 0 0 1
vn 0 0 1
vn 0 0 1
vn 0 0 1
vn 0 0 1
vn 0 0 1
vn 0 0 1
vn 0 0 1
vn 0 0 1
vn 0 0 1
vn 0 0 1
vn 0 0 1
vn 0 0 1
vn 0 0 1
vn 0 0 1
vn 0 0 1
vn 0 0 1
vn 0 0 1
vn 0 0 1
vn 0 0 1
vn 0 0 1
vn 0 0 1
vn 0 0 1
vn 0 0 1
vn 0 0 1
vn 0 0 1
vn 0 0 1
vn 0 0 1
vn 0 0 1
vn 0 0 1
vn 0 0 1
vn 0 0 1

f 2//2 3//3 4//4
f 4//4 3//3 5//5
f 4//4 5//5 6//6
f 6//6 5//5 7//7
f 6//6 7//7 8//8
f 8//8 7//7 9//9
f 8//8 9//9 10//10
f 10//10 9//9 11//11
f 10//10 11//11 12//12
f 13//13 14//14 15//15
f 15//15 14//14 16//16
f 15//15 16//16 17//17
f 17//17 16//16 18//18
f 17//17 18//18 19//19
f 20//20 21//21 22//22
f 22//22 21//21 23//23
f 22//22 23//23 24//24
f 24//24 23//23 25//25
f 24//24 25//25 26//26
f 26//26 25//25 27//27
f 26//26 27//27 28//28
f 29//29 30//30 31//31
f 31//31 30//30 32//32
f 31//31 32//32 33//33
f 33//33 32//32 34//34
f 33//33 34//34 35//35
f 36//36 37//37 38//38
f 38//38 37//37 39//39
f 38//38 39//39 40//40
f 40//40 39//39 41//41
f 40//40 41//41 42//42
f 42//42 41//41 43//43
f 42//42 43//43 44//44
f 44//44 43//43 45//45
f 44//44 45//45 46//46
f 47//47 48//48 49//49
f 49//49 48//48 50//50
f 49//49 50//50 51//51
f 51//51 50//50 52//52
f 51//51 52//52 53//53
f 53//53 52//52 54//54
f 55//55 56//56 57//57
f 55//55 57//57 58//58
f 55//55 58//58 59//59
f 55//55 59//59 60//60
f 55//55 60//60 61//61
f 62//62 63//63 64//64
f 62//62 64//64 65//65
f 66//66 67//67 68//68
f 66//66 68//68 69//69
f 66//66 69//69 70//70
f 71//71 72//72 73//73
f 73//73 72//72 74//74
f 73//73 74//74 75//75
f 75//75 74//74 76//76
f 75//75 76//76 77//77
f 78//78 79//79 80//80
f 78//78 80//80 81//81
f 82//82 83//83 84//84
f 82//82 84//84 85//85
f 82//82 85//85 86//86
f 82//82 86//86 87//87
f 88//88 89//89 90//90
f 88//88 90//90 91//91
f 88//88 91//91 92//92
f 88//88 92//92 93//93
f 94//94 95//95 96//96
f 94//94 96//96 97//97
f 94//94 97//97 98//98
f 99//99 100//100 101//101
f 99//99 101//101 102//102
f 103//103 104//104 105//105
f 103//103 105//105 106//106
f 103//103 106//106 107//107
f 103//103 107//107 108//108
f 109//109 110//110 111//111
f 111//111 110//110 112//112
f 111//111 112//112 113//113
f 113//113 112//112 114//114
f 113//113 114//114 115//115
f 115//115 114//114 116//116
f 115//115 116//116 117//117
f 118//118 119//119 120//120
f 118//118 120//120 121//121
f 118//118 121//121 122//122
f 123//123 124//124 125//125
f 126//126 127//127 128//128
f 129//129 130//130 131//131
f 132//132 133//133 134//134
f 135//135 136//136 137//137
f 138//138 139//139 140//140
f 141//141 142//142 143//143

