# Wavefront OBJ

mtllib corridors_inf_public_accessible_wall_tri.mtl

o corridors_inf_public_accessible_wall_tri_0

s 1

usemtl corridors_inf_public_accessible_wall_tri_0

v 77.3574 54.6771 -15
v 77.3033 54.7257 -15
v 76.9193 55.625 -15
v 77.5328 56.3367 -15
v 77.1146 56.5376 -15
v 78.0426 57.054 -15
v 78.8492 58.1376 -15
v 79.2586 58.7257 -15
v 80.0564 60.0112 -15
v 78.8216 60.7549 -15
v 78.5027 61.3 -15
v 71.4738 64.9138 -15
v 69.9555 64.5772 -15
v 68.3146 64.5276 -15
v 68.2694 65.0981 -15
v 67.4981 65.4898 -15
v 62.377 68.4757 -15
v 60.0013 69.8793 -15
v 60.2033 70.7069 -15
v 59.4485 71.231 -15
v 57.7492 70.7907 -15
v 56.7407 69.8219 -15
v 57.2317 69.3309 -15
v 55.6262 67.497 -15
v 54.3153 67.0048 -15
v 51.4651 64.9734 -15
v 46.4058 64.681 -15
v 43.7917 63.2928 -15
v 42.9101 63.6217 -15
v 43.0193 63.7596 -15
v 43.9341 63.9273 -15
v 44.2629 64.2098 -15
v 45.7923 65.2934 -15
v 49.7934 65.6939 -15
v 52.0212 66.4917 -15
v 53.2019 68.0531 -15
v 55.102 69.3971 -15
v 56.4449 72.8056 -15
v 57.0353 73.2967 -15
v 58.4444 75.1968 -15
v 59.2664 76.191 -15
v 59.7045 76.0211 -15
v 60.1161 75.6801 -15
v 59.8303 74.7973 -15
v 59.4154 75.2111 -15
v 58.5172 74.207 -15
v 58.9332 73.7932 -15
v 58.2138 72.9866 -15
v 57.7978 73.3993 -15
v 56.9702 72.4702 -15
v 57.5274 71.4936 -15
v 59.5655 71.6459 -15
v 61.278 70.89 -15
v 63.8203 69.3563 -15
v 68.5365 66.8084 -15
v 72.6071 66.1463 -15
v 72.8542 91.3534 -15
v 73.6531 91.3876 -15
v 73.5527 80.2219 -15
v 75.9284 78.7344 -15
v 79.689 77.0164 -15
v 81.1532 76.8652 -15
v 81.1442 80.255 -15
v 81.8769 80.2219 -15
v 81.9917 71.9505 -15
v 81.1376 71.9096 -15
v 81.1806 76.0409 -15
v 80.2669 76.1281 -15
v 77.2865 77.034 -15
v 73.6187 79.2387 -15
v 73.7246 65.6674 -15
v 75.7958 64.0884 -15
v 78.1196 62.9497 -15
v 80.8275 61.7381 -15
v 80.5516 61.2504 -15
v 79.5762 61.7293 -15
v 79.1668 60.9999 -15
v 80.8959 60.1933 -15
v 81.2623 60.8531 -15
v 81.3869 61.0815 -15
v 81.6132 60.9491 -15
v 81.8029 61.2393 -15
v 81.5469 61.4071 -15
v 81.6441 62.1916 -15
v 81.836 62.548 -15
v 82.1229 62.9618 -15
v 82.3602 63.0997 -15
v 82.6217 63.0446 -15
v 83.201 62.6904 -15
v 82.1638 59.8358 -15
v 81.0703 58.249 -15
v 80.0761 57.2449 -15
v 78.4099 55.7056 -15
v 77.3572 54.6772 -15
v 77.3574 54.6771 -14
v 77.3033 54.7257 -14
v 76.9193 55.625 -14
v 77.5328 56.3367 -14
v 77.1146 56.5376 -14
v 78.0426 57.054 -14
v 78.8492 58.1376 -14
v 79.2586 58.7257 -14
v 80.0564 60.0112 -14
v 78.8216 60.7549 -14
v 78.5027 61.3 -14
v 71.4738 64.9138 -14
v 69.9555 64.5772 -14
v 68.3146 64.5276 -14
v 68.2694 65.0981 -14
v 67.4981 65.4898 -14
v 62.377 68.4757 -14
v 60.0013 69.8793 -14
v 60.2033 70.7069 -14
v 59.4485 71.231 -14
v 57.7492 70.7907 -14
v 56.7407 69.8219 -14
v 57.2317 69.3309 -14
v 55.6262 67.497 -14
v 54.3153 67.0048 -14
v 51.4651 64.9734 -14
v 46.4058 64.681 -14
v 43.7917 63.2928 -14
v 42.9101 63.6217 -14
v 43.0193 63.7596 -14
v 43.9341 63.9273 -14
v 44.2629 64.2098 -14
v 45.7923 65.2934 -14
v 49.7934 65.6939 -14
v 52.0212 66.4917 -14
v 53.2019 68.0531 -14
v 55.102 69.3971 -14
v 56.4449 72.8056 -14
v 57.0353 73.2967 -14
v 58.4444 75.1968 -14
v 59.2664 76.191 -14
v 59.7045 76.0211 -14
v 60.1161 75.6801 -14
v 59.8303 74.7973 -14
v 59.4154 75.2111 -14
v 58.5172 74.207 -14
v 58.9332 73.7932 -14
v 58.2138 72.9866 -14
v 57.7978 73.3993 -14
v 56.9702 72.4702 -14
v 57.5274 71.4936 -14
v 59.5655 71.6459 -14
v 61.278 70.89 -14
v 63.8203 69.3563 -14
v 68.5365 66.8084 -14
v 72.6071 66.1463 -14
v 72.8542 91.3534 -14
v 73.6531 91.3876 -14
v 73.5527 80.2219 -14
v 75.9284 78.7344 -14
v 79.689 77.0164 -14
v 81.1532 76.8652 -14
v 81.1442 80.255 -14
v 81.8769 80.2219 -14
v 81.9917 71.9505 -14
v 81.1376 71.9096 -14
v 81.1806 76.0409 -14
v 80.2669 76.1281 -14
v 77.2865 77.034 -14
v 73.6187 79.2387 -14
v 73.7246 65.6674 -14
v 75.7958 64.0884 -14
v 78.1196 62.9497 -14
v 80.8275 61.7381 -14
v 80.5516 61.2504 -14
v 79.5762 61.7293 -14
v 79.1668 60.9999 -14
v 80.8959 60.1933 -14
v 81.2623 60.8531 -14
v 81.3869 61.0815 -14
v 81.6132 60.9491 -14
v 81.8029 61.2393 -14
v 81.5469 61.4071 -14
v 81.6441 62.1916 -14
v 81.836 62.548 -14
v 82.1229 62.9618 -14
v 82.3602 63.0997 -14
v 82.6217 63.0446 -14
v 83.201 62.6904 -14
v 82.1638 59.8358 -14
v 81.0703 58.249 -14
v 80.0761 57.2449 -14
v 78.4099 55.7056 -14
v 77.3572 54.6772 -14

vn 0.670594 0.741824 0
vn 0.89658 0.442882 0
vn 0.998112 0.0614212 0
vn 0.895158 -0.445749 0
vn 0.995061 -0.0992646 0
vn 0.62224 -0.782827 0
vn 0.806116 -0.591757 0
vn 0.83589 -0.548898 0
vn 0.994128 -0.108213 0
vn 0.589047 0.808099 0
vn 0.522967 0.852353 0
vn 0.404582 0.914502 0
vn -0.152707 0.988272 0
vn 0.140231 0.990119 0
vn 0.871683 0.49007 0
vn 0.492346 0.8704 0
vn 0.504635 0.863333 0
vn 0.624186 0.781276 0
vn 0.987284 0.158964 0
vn 0.186167 0.982518 0
vn -0.386943 0.922104 0
vn -0.846718 0.532042 0
vn -0.976357 0.216163 0
vn -0.677043 0.735944 0
vn -0.48267 0.875802 0
vn -0.375206 0.926941 0
vn -0.153126 0.988207 0
vn -0.371852 0.928292 0
vn 0.433455 0.901175 0
vn 0.364502 -0.931203 0
vn 0.275239 -0.961376 0
vn 0.601932 -0.798547 0
vn 0.341802 -0.939772 0
vn 0.154419 -0.988005 0
vn 0.488671 -0.872468 0
vn 0.723534 -0.690289 0
vn 0.764339 -0.644814 0
vn 0.912506 -0.409063 0
vn 0.743832 -0.668366 0
vn 0.796444 -0.604712 0
vn 0.657799 -0.753193 0
vn -0.467394 -0.884049 0
vn -0.945775 -0.324822 0
vn -0.807764 0.589506 0
vn -0.101643 0.994821 0
vn -0.868802 0.495159 0
vn -0.997637 -0.0687008 0
vn -0.543356 0.839502 0
vn -0.062377 0.998053 0
vn -0.932501 0.361167 0
vn -0.496009 -0.868317 0
vn -0.0777283 -0.996975 0
vn -0.454577 -0.890707 0
vn -0.497138 -0.867672 0
vn -0.39224 -0.919863 0
vn 0.943496 -0.331383 0
vn 0.999672 -0.0256267 0
vn -0.991019 -0.133719 0
vn -0.995857 -0.0909307 0
vn -0.482817 -0.875721 0
vn -0.370784 -0.928719 0
vn 0.726586 -0.687075 0
vn 0.994436 -0.105344 0
vn -0.982511 -0.186203 0
vn -0.999292 0.0376339 0
vn 0.924868 0.380288 0
vn 0.995123 0.0986396 0
vn 0.219228 0.975674 0
vn 0.384991 0.92292 0
vn -0.785021 0.619469 0
vn -0.996856 -0.0792384 0
vn -0.553454 -0.83288 0
vn -0.428576 -0.903506 0
vn -0.492794 -0.870146 0
vn -0.309205 0.950995 0
vn 0.0963253 0.99535 0
vn -0.927882 -0.372873 0
vn -0.241875 -0.970308 0
vn 0.874805 -0.484476 0
vn 0.563506 -0.826112 0
vn 0.0394935 -0.99922 0
vn 0.986632 -0.162966 0
vn 0.937725 0.34738 0
vn 0.980472 -0.196658 0
vn 0.859197 -0.511644 0
vn 0.765698 -0.6432 0
vn 0.287224 -0.957864 0
vn -0.388345 -0.921514 0
vn -0.99942 -0.0340501 0
vn -0.917263 0.398283 0
vn -0.79559 0.605836 0
vn -0.696521 0.717536 0
vn -0.683586 0.72987 0
vn -0.698848 0.71527 0
vn 0.66857 0.743649 0
vn 0.913605 0.406603 0
vn 0.940003 -0.341166 0
vn 0.980542 0.196307 0
vn 0.651175 -0.758927 0
vn 0.726102 -0.687587 0
vn 0.811824 -0.583902 0
vn 0.844317 -0.535844 0
vn 0.856409 0.516297 0
vn 0.699699 0.714438 0
vn 0.475585 0.87967 0
vn 0.280428 0.959875 0
vn -0.0904323 0.995903 0
vn 0.533268 0.845947 0
vn 0.648842 0.760923 0
vn 0.500289 0.865858 0
vn 0.506093 0.862479 0
vn 0.840487 0.541832 0
vn 0.820365 0.57184 0
vn -0.0854996 0.996338 0
vn -0.538961 0.842331 0
vn -0.999908 0.0135788 0
vn -0.836904 0.54735 0
vn -0.554701 0.83205 0
vn -0.544793 0.838571 0
vn -0.197752 0.980252 0
vn -0.285848 0.958275 0
vn -0.164601 0.98636 0
vn 0.673778 0.738934 0
vn 0.237197 -0.971462 0
vn 0.422362 -0.906427 0
vn 0.585973 -0.810331 0
vn 0.193975 -0.981006 0
vn 0.229726 -0.973255 0
vn 0.649542 -0.760326 0
vn 0.649026 -0.760766 0
vn 0.871789 -0.489881 0
vn 0.866994 -0.498318 0
vn 0.783044 -0.621967 0
vn 0.78652 -0.617565 0
vn 0.359549 -0.933126 0
vn -0.559699 -0.828696 0
vn -0.997127 0.0757434 0
vn -0.0494056 0.998779 0
vn -0.58487 0.811127 0
vn -0.999347 0.0361279 0
vn -0.892769 0.450514 0
vn 0.0120915 0.999927 0
vn -0.572319 0.820031 0
vn -0.995083 -0.0990473 0
vn -0.143533 -0.989646 0
vn -0.241475 -0.970407 0
vn -0.490261 -0.871576 0
vn -0.484355 -0.874871 0
vn -0.288358 -0.957523 0
vn 0.995817 -0.0913701 0
vn 0.997346 -0.0728008 0
vn -0.999641 -0.0268125 0
vn -0.949936 -0.312445 0
vn -0.445418 -0.895323 0
vn -0.289146 -0.957285 0
vn 0.977014 -0.213177 0
vn 0.915926 -0.401348 0
vn -0.99832 -0.0579507 0
vn -0.982288 0.187376 0
vn 0.995665 0.0930129 0
vn 0.923813 0.382843 0
vn 0.266269 0.963899 0
vn 0.458022 0.888941 0
vn -0.990533 0.137272 0
vn -0.969237 -0.246129 0
vn -0.497811 -0.867285 0
vn -0.418072 -0.908414 0
vn -0.712118 -0.70206 0
vn 0.20655 0.978436 0
vn -0.479305 0.877648 0
vn -0.609278 -0.792957 0
vn 0.204043 -0.978962 0
vn 0.875704 -0.482848 0
vn -0.0629738 -0.998015 0
vn 0.594601 -0.804021 0
vn 0.889025 0.457858 0
vn 0.999368 0.0355544 0
vn 0.952066 -0.305891 0
vn 0.839671 -0.543096 0
vn 0.671335 -0.741154 0
vn 0.0362635 -0.999342 0
vn -0.473567 -0.880758 0
vn -0.970918 0.239413 0
vn -0.881789 0.471644 0
vn -0.759206 0.65085 0
vn -0.686313 0.727306 0
vn -0.690072 0.723741 0
vn -0.698965 0.715156 0

f 1//1 2//2 95//95
f 2//2 96//96 95//95
f 2//2 3//3 96//96
f 3//3 97//97 96//96
f 3//3 4//4 97//97
f 4//4 98//98 97//97
f 4//4 5//5 98//98
f 5//5 99//99 98//98
f 5//5 6//6 99//99
f 6//6 100//100 99//99
f 6//6 7//7 100//100
f 7//7 101//101 100//100
f 7//7 8//8 101//101
f 8//8 102//102 101//101
f 8//8 9//9 102//102
f 9//9 103//103 102//102
f 9//9 10//10 103//103
f 10//10 104//104 103//103
f 10//10 11//11 104//104
f 11//11 105//105 104//104
f 11//11 12//12 105//105
f 12//12 106//106 105//105
f 12//12 13//13 106//106
f 13//13 107//107 106//106
f 13//13 14//14 107//107
f 14//14 108//108 107//107
f 14//14 15//15 108//108
f 15//15 109//109 108//108
f 15//15 16//16 109//109
f 16//16 110//110 109//109
f 16//16 17//17 110//110
f 17//17 111//111 110//110
f 17//17 18//18 111//111
f 18//18 112//112 111//111
f 18//18 19//19 112//112
f 19//19 113//113 112//112
f 19//19 20//20 113//113
f 20//20 114//114 113//113
f 20//20 21//21 114//114
f 21//21 115//115 114//114
f 21//21 22//22 115//115
f 22//22 116//116 115//115
f 22//22 23//23 116//116
f 23//23 117//117 116//116
f 23//23 24//24 117//117
f 24//24 118//118 117//117
f 24//24 25//25 118//118
f 25//25 119//119 118//118
f 25//25 26//26 119//119
f 26//26 120//120 119//119
f 26//26 27//27 120//120
f 27//27 121//121 120//120
f 27//27 28//28 121//121
f 28//28 122//122 121//121
f 28//28 29//29 122//122
f 29//29 123//123 122//122
f 29//29 30//30 123//123
f 30//30 124//124 123//123
f 30//30 31//31 124//124
f 31//31 125//125 124//124
f 31//31 32//32 125//125
f 32//32 126//126 125//125
f 32//32 33//33 126//126
f 33//33 127//127 126//126
f 33//33 34//34 127//127
f 34//34 128//128 127//127
f 34//34 35//35 128//128
f 35//35 129//129 128//128
f 35//35 36//36 129//129
f 36//36 130//130 129//129
f 36//36 37//37 130//130
f 37//37 131//131 130//130
f 37//37 38//38 131//131
f 38//38 132//132 131//131
f 38//38 39//39 132//132
f 39//39 133//133 132//132
f 39//39 40//40 133//133
f 40//40 134//134 133//133
f 40//40 41//41 134//134
f 41//41 135//135 134//134
f 41//41 42//42 135//135
f 42//42 136//136 135//135
f 42//42 43//43 136//136
f 43//43 137//137 136//136
f 43//43 44//44 137//137
f 44//44 138//138 137//137
f 44//44 45//45 138//138
f 45//45 139//139 138//138
f 45//45 46//46 139//139
f 46//46 140//140 139//139
f 46//46 47//47 140//140
f 47//47 141//141 140//140
f 47//47 48//48 141//141
f 48//48 142//142 141//141
f 48//48 49//49 142//142
f 49//49 143//143 142//142
f 49//49 50//50 143//143
f 50//50 144//144 143//143
f 50//50 51//51 144//144
f 51//51 145//145 144//144
f 51//51 52//52 145//145
f 52//52 146//146 145//145
f 52//52 53//53 146//146
f 53//53 147//147 146//146
f 53//53 54//54 147//147
f 54//54 148//148 147//147
f 54//54 55//55 148//148
f 55//55 149//149 148//148
f 55//55 56//56 149//149
f 56//56 150//150 149//149
f 56//56 57//57 150//150
f 57//57 151//151 150//150
f 57//57 58//58 151//151
f 58//58 152//152 151//151
f 58//58 59//59 152//152
f 59//59 153//153 152//152
f 59//59 60//60 153//153
f 60//60 154//154 153//153
f 60//60 61//61 154//154
f 61//61 155//155 154//154
f 61//61 62//62 155//155
f 62//62 156//156 155//155
f 62//62 63//63 156//156
f 63//63 157//157 156//156
f 63//63 64//64 157//157
f 64//64 158//158 157//157
f 64//64 65//65 158//158
f 65//65 159//159 158//158
f 65//65 66//66 159//159
f 66//66 160//160 159//159
f 66//66 67//67 160//160
f 67//67 161//161 160//160
f 67//67 68//68 161//161
f 68//68 162//162 161//161
f 68//68 69//69 162//162
f 69//69 163//163 162//162
f 69//69 70//70 163//163
f 70//70 164//164 163//163
f 70//70 71//71 164//164
f 71//71 165//165 164//164
f 71//71 72//72 165//165
f 72//72 166//166 165//165
f 72//72 73//73 166//166
f 73//73 167//167 166//166
f 73//73 74//74 167//167
f 74//74 168//168 167//167
f 74//74 75//75 168//168
f 75//75 169//169 168//168
f 75//75 76//76 169//169
f 76//76 170//170 169//169
f 76//76 77//77 170//170
f 77//77 171//171 170//170
f 77//77 78//78 171//171
f 78//78 172//172 171//171
f 78//78 79//79 172//172
f 79//79 173//173 172//172
f 79//79 80//80 173//173
f 80//80 174//174 173//173
f 80//80 81//81 174//174
f 81//81 175//175 174//174
f 81//81 82//82 175//175
f 82//82 176//176 175//175
f 82//82 83//83 176//176
f 83//83 177//177 176//176
f 83//83 84//84 177//177
f 84//84 178//178 177//177
f 84//84 85//85 178//178
f 85//85 179//179 178//178
f 85//85 86//86 179//179
f 86//86 180//180 179//179
f 86//86 87//87 180//180
f 87//87 181//181 180//180
f 87//87 88//88 181//181
f 88//88 182//182 181//181
f 88//88 89//89 182//182
f 89//89 183//183 182//182
f 89//89 90//90 183//183
f 90//90 184//184 183//183
f 90//90 91//91 184//184
f 91//91 185//185 184//184
f 91//91 92//92 185//185
f 92//92 186//186 185//185
f 92//92 93//93 186//186
f 93//93 187//187 186//186
f 93//93 94//94 187//187
f 94//94 188//188 187//187
f 94//94 1//1 188//188
f 1//1 95//95 188//188

