# Wavefront OBJ

mtllib masonry_inf_public_accessible_wall_tri.mtl

o masonry_inf_public_accessible_wall_tri_0

s 1

usemtl masonry_inf_public_accessible_wall_tri_0

v 54.8297 68.1946 -15
v 55.1418 67.8468 -15
v 55.5228 68.1885 -15
v 55.2228 68.5723 -15
v 54.8297 68.1946 -14
v 55.1418 67.8468 -14
v 55.5228 68.1885 -14
v 55.2228 68.5723 -14
v 55.831 69.2257 -15
v 56.2179 68.811 -15
v 56.5945 69.2304 -15
v 56.19 69.6435 -15
v 55.831 69.2257 -14
v 56.2179 68.811 -14
v 56.5945 69.2304 -14
v 56.19 69.6435 -14
v 61.5504 68.9723 -15
v 61.7793 69.3676 -15
v 62.326 69.033 -15
v 62.0842 68.6539 -15
v 61.5504 68.9723 -14
v 61.7793 69.3676 -14
v 62.326 69.033 -14
v 62.0842 68.6539 -14
v 62.9645 68.1868 -15
v 63.1933 68.5821 -15
v 63.74 68.2475 -15
v 63.4983 67.8684 -15
v 62.9645 68.1868 -14
v 63.1933 68.5821 -14
v 63.74 68.2475 -14
v 63.4983 67.8684 -14
v 64.2315 67.4241 -15
v 64.4603 67.8193 -15
v 65.007 67.4847 -15
v 64.7653 67.1056 -15
v 64.2315 67.4241 -14
v 64.4603 67.8193 -14
v 65.007 67.4847 -14
v 64.7653 67.1056 -14
v 65.4274 66.7445 -15
v 65.6562 67.1397 -15
v 66.2029 66.8052 -15
v 65.9612 66.426 -15
v 65.4274 66.7445 -14
v 65.6562 67.1397 -14
v 66.2029 66.8052 -14
v 65.9612 66.426 -14
v 66.5576 66.054 -15
v 66.7864 66.4493 -15
v 67.3331 66.1147 -15
v 67.0914 65.7356 -15
v 66.5576 66.054 -14
v 66.7864 66.4493 -14
v 67.3331 66.1147 -14
v 67.0914 65.7356 -14

vn -0.918775 0.394781 0
vn -0.332165 -0.943221 0
vn 0.917733 -0.397199 0
vn 0.36551 0.930807 0
vn -0.977589 -0.210523 0
vn 0.298237 -0.954492 0
vn 0.981061 0.1937 0
vn -0.323671 0.94617 0
vn -0.966674 0.256012 0
vn -0.335716 -0.941963 0
vn 0.963334 -0.268304 0
vn 0.330136 0.943933 0
vn -0.948892 -0.3156 0
vn 0.348614 -0.937267 0
vn 0.944716 0.327889 0
vn -0.352268 0.935899 0
vn 0.776062 0.630657 0
vn 0.413364 -0.910566 0
vn -0.776137 -0.630564 0
vn -0.396881 0.91787 0
vn 0.997652 0.0684923 0
vn -0.202823 -0.979215 0
vn -0.998329 -0.0577874 0
vn 0.193163 0.981167 0
vn 0.77606 0.630659 0
vn 0.413353 -0.910571 0
vn -0.776135 -0.630567 0
vn -0.396869 0.917875 0
vn 0.997652 0.0684933 0
vn -0.202829 -0.979214 0
vn -0.998329 -0.0577882 0
vn 0.193168 0.981166 0
vn 0.776064 0.630654 0
vn 0.413352 -0.910572 0
vn -0.776136 -0.630566 0
vn -0.396873 0.917874 0
vn 0.997652 0.0684928 0
vn -0.202828 -0.979214 0
vn -0.998329 -0.057784 0
vn 0.193173 0.981165 0
vn 0.77606 0.630659 0
vn 0.413357 -0.910569 0
vn -0.776131 -0.630571 0
vn -0.396878 0.917871 0
vn 0.997652 0.0684933 0
vn -0.202817 -0.979217 0
vn -0.998329 -0.0577844 0
vn 0.193162 0.981167 0
vn 0.776064 0.630654 0
vn 0.413352 -0.910572 0
vn -0.776136 -0.630566 0
vn -0.396873 0.917874 0
vn 0.997652 0.0684928 0
vn -0.202828 -0.979214 0
vn -0.998329 -0.057784 0
vn 0.193173 0.981165 0

f 1//1 2//2 5//5
f 2//2 6//6 5//5
f 2//2 3//3 6//6
f 3//3 7//7 6//6
f 3//3 4//4 7//7
f 4//4 8//8 7//7
f 4//4 1//1 8//8
f 1//1 5//5 8//8
f 9//9 10//10 13//13
f 10//10 14//14 13//13
f 10//10 11//11 14//14
f 11//11 15//15 14//14
f 11//11 12//12 15//15
f 12//12 16//16 15//15
f 12//12 9//9 16//16
f 9//9 13//13 16//16
f 17//17 18//18 21//21
f 18//18 22//22 21//21
f 18//18 19//19 22//22
f 19//19 23//23 22//22
f 19//19 20//20 23//23
f 20//20 24//24 23//23
f 20//20 17//17 24//24
f 17//17 21//21 24//24
f 25//25 26//26 29//29
f 26//26 30//30 29//29
f 26//26 27//27 30//30
f 27//27 31//31 30//30
f 27//27 28//28 31//31
f 28//28 32//32 31//31
f 28//28 25//25 32//32
f 25//25 29//29 32//32
f 33//33 34//34 37//37
f 34//34 38//38 37//37
f 34//34 35//35 38//38
f 35//35 39//39 38//38
f 35//35 36//36 39//39
f 36//36 40//40 39//39
f 36//36 33//33 40//40
f 33//33 37//37 40//40
f 41//41 42//42 45//45
f 42//42 46//46 45//45
f 42//42 43//43 46//46
f 43//43 47//47 46//46
f 43//43 44//44 47//47
f 44//44 48//48 47//47
f 44//44 41//41 48//48
f 41//41 45//45 48//48
f 49//49 50//50 53//53
f 50//50 54//54 53//53
f 50//50 51//51 54//54
f 51//51 55//55 54//54
f 51//51 52//52 55//55
f 52//52 56//56 55//55
f 52//52 49//49 56//56
f 49//49 53//53 56//56

