# Wavefront OBJ

mtllib street signs_sup_public_accessible_wall_tri.mtl

o street signs_sup_public_accessible_wall_tri_0

s 1

usemtl street signs_sup_public_accessible_wall_tri_0

v 91.3519 80.1078 -9.5
v 91.3519 78.2142 -9.5
v 91.3519 80.1078 -9
v 91.3519 78.2142 -9
v 91.2958 64.9623 -9.5
v 91.2958 63.0688 -9.5
v 91.2958 64.9623 -9
v 91.2958 63.0688 -9
v 70.1541 89.9205 -9.5
v 71.7703 89.4903 -9.5
v 70.1541 89.9205 -9
v 71.7703 89.4903 -9
v 74.5679 93.0294 -9.5
v 74.5679 91.1358 -9.5
v 74.5679 93.0294 -9
v 74.5679 91.1358 -9
v 50.7623 94.374 -9.5
v 48.7248 94.3154 -9.5
v 50.7623 94.374 -9
v 48.7248 94.3154 -9
v 50.4448 76.738 -9.5
v 50.4448 74.8444 -9.5
v 50.4448 76.738 -9
v 50.4448 74.8444 -9
v 56.6134 75.7761 -9.5
v 56.6134 73.8825 -9.5
v 56.6134 75.7761 -9
v 56.6134 73.8825 -9
v 71.7807 57.6083 -9.5
v 71.7807 55.7147 -9.5
v 71.7807 57.6083 -9
v 71.7807 55.7147 -9
v 69.9279 53.1475 -9.5
v 71.7082 52.9073 -9.5
v 69.9279 53.1475 -9
v 71.7082 52.9073 -9
v 74.7544 80.6562 -9.5
v 76.0843 79.8914 -9.5
v 74.7544 80.6562 -9
v 76.0843 79.8914 -9
v 47.0184 72.219 -9.5
v 48.7986 71.9789 -9.5
v 47.0184 72.219 -9
v 48.7986 71.9789 -9

vn -1 0 0
vn -1 0 0
vn -1 0 0
vn -1 0 0
vn -1 0 0
vn -1 0 0
vn -1 0 0
vn -1 0 0
vn -0.25724 -0.966347 0
vn -0.25724 -0.966347 0
vn -0.25724 -0.966347 0
vn -0.25724 -0.966347 0
vn -1 0 0
vn -1 0 0
vn -1 0 0
vn -1 0 0
vn -0.0287311 0.999587 0
vn -0.0287311 0.999587 0
vn -0.0287311 0.999587 0
vn -0.0287311 0.999587 0
vn -1 0 0
vn -1 0 0
vn -1 0 0
vn -1 0 0
vn -1 0 0
vn -1 0 0
vn -1 0 0
vn -1 0 0
vn -1 0 0
vn -1 0 0
vn -1 0 0
vn -1 0 0
vn -0.133699 -0.991022 0
vn -0.133699 -0.991022 0
vn -0.133699 -0.991022 0
vn -0.133699 -0.991022 0
vn -0.498564 -0.866853 0
vn -0.498564 -0.866853 0
vn -0.498564 -0.866853 0
vn -0.498564 -0.866853 0
vn -0.133698 -0.991022 0
vn -0.133698 -0.991022 0
vn -0.133698 -0.991022 0
vn -0.133698 -0.991022 0

f 1//1 2//2 3//3
f 2//2 4//4 3//3
f 5//5 6//6 7//7
f 6//6 8//8 7//7
f 9//9 10//10 11//11
f 10//10 12//12 11//11
f 13//13 14//14 15//15
f 14//14 16//16 15//15
f 17//17 18//18 19//19
f 18//18 20//20 19//19
f 21//21 22//22 23//23
f 22//22 24//24 23//23
f 25//25 26//26 27//27
f 26//26 28//28 27//27
f 29//29 30//30 31//31
f 30//30 32//32 31//31
f 33//33 34//34 35//35
f 34//34 36//36 35//35
f 37//37 38//38 39//39
f 38//38 40//40 39//39
f 41//41 42//42 43//43
f 42//42 44//44 43//43

