# Wavefront OBJ

mtllib corridors_sup_public_accessible_wall_tri.mtl

o corridors_sup_public_accessible_wall_tri_0

s 1

usemtl corridors_sup_public_accessible_wall_tri_0

v 72.6015 52.4581 -10
v 72.6105 53.8098 -10
v 65.2804 55.4937 -10
v 60.7916 61.3055 -10
v 60.0357 68.4095 -10
v 60.1085 71.1824 -10
v 57.9954 70.9331 -10
v 55.9883 71.3138 -10
v 55.9188 69.61 -10
v 54.9643 69.5262 -10
v 55.0371 71.7772 -10
v 52.028 72.2705 -10
v 52.0501 70.3714 -10
v 50.9533 70.5049 -10
v 50.9202 72.724 -10
v 47.2733 73.1356 -10
v 45.7549 73.0727 -10
v 45.7572 69.7877 -10
v 45.2496 68.2208 -10
v 43.0549 68.4194 -10
v 42.5153 70.0911 -10
v 42.7029 73.9212 -10
v 43.0913 74.3328 -10
v 45.9228 74.4288 -10
v 48.8656 74.0989 -10
v 51.1696 73.823 -10
v 51.1531 81.8097 -10
v 52.0204 81.5824 -10
v 52.0778 73.5361 -10
v 55.0405 72.9656 -10
v 55.0173 81.2481 -10
v 55.8758 80.8519 -10
v 55.9608 72.7527 -10
v 60.3503 73.3033 -10
v 60.2576 79.2994 -10
v 58.7183 85.2072 -10
v 58.939 87.9669 -10
v 56.1087 89.0273 -10
v 55.3175 91.1846 -10
v 52.5876 92.2759 -10
v 47.706 91.9978 -10
v 47.0571 91.5895 -10
v 43.0571 93.4422 -10
v 44.2389 95.531 -10
v 47.44 94.1815 -10
v 48.0723 93.3981 -10
v 52.6858 93.5967 -10
v 56.0833 92.8243 -10
v 57.3721 89.973 -10
v 59.6993 89.0251 -10
v 61.7164 91.0168 -10
v 67.5536 92.32 -10
v 72.9362 91.3424 -10
v 72.6791 107.023 -10
v 73.6987 107 -10
v 73.6446 80.3013 -10
v 81.3488 76.9336 -10
v 81.4702 78.1827 -10
v 81.1778 78.9738 -10
v 80.2983 80.1545 -10
v 80.1174 80.8563 -10
v 80.1124 81.9741 -10
v 80.9499 81.9801 -10
v 81.0503 84.2642 -10
v 82.0798 84.9473 -10
v 82.0952 86.7999 -10
v 81.4144 86.8253 -10
v 80.1134 87.9222 -10
v 79.3454 87.4466 -10
v 78.1074 88.027 -10
v 77.3438 89.4769 -10
v 77.2688 91.4664 -10
v 79.5573 91.3406 -10
v 80.4699 90.0397 -10
v 82.5764 89.7097 -10
v 84.834 90.7216 -10
v 86.9338 89.9812 -10
v 86.2961 89.2308 -10
v 86.2961 88.1064 -10
v 86.9857 87.6143 -10
v 86.5355 86.5296 -10
v 87.3101 86.2571 -10
v 87.8839 84.8391 -10
v 87.4436 83.8637 -10
v 87.1424 84.0435 -10
v 87.4525 84.774 -10
v 86.9603 85.819 -10
v 86.3634 86.1136 -10
v 84.7468 85.9812 -10
v 83.8508 86.9423 -10
v 82.6536 86.8375 -10
v 82.5488 84.7089 -10
v 81.3659 83.8769 -10
v 81.3041 81.6347 -10
v 80.4975 81.5806 -10
v 80.6431 80.6019 -10
v 81.5358 79.1431 -10
v 81.9584 78.0165 -10
v 81.794 76.9285 -10
v 81.9209 76.9262 -10
v 89.4276 80.9074 -10
v 89.3393 91.698 -10
v 90.4704 91.701 -10
v 90.4836 62.7676 -10
v 73.6009 59.102 -10
v 73.5929 55.0601 -10
v 74.3366 55.0876 -10
v 78.2737 56.3511 -10
v 78.2925 55.1594 -10
v 73.5907 53.9191 -10
v 73.5887 52.5034 -10
v 72.0399 54.9938 -10
v 72.617 55.0104 -10
v 72.6391 58.8934 -10
v 70.6209 58.4553 -10
v 70.6374 59.3734 -10
v 72.6446 59.8192 -10
v 72.6466 60.1855 -10
v 72.6386 67.8247 -10
v 71.9224 68.1436 -10
v 71.9952 70.292 -10
v 72.6838 70.4343 -10
v 72.6319 79.7021 -10
v 65.0667 84.0972 -10
v 65.1196 85.1642 -10
v 71.9631 81.343 -10
v 72.8525 80.8464 -10
v 72.8978 80.821 -10
v 72.7488 90.3272 -10
v 69.401 91.1194 -10
v 63.4115 90.7608 -10
v 59.8419 87.0908 -10
v 59.9015 83.9062 -10
v 60.8968 80.6985 -10
v 61.55 78.0966 -10
v 61.0148 69.7689 -10
v 61.298 63.3153 -10
v 64.5999 56.9835 -10
v 69.1373 55.3293 -10
v 72.0393 54.9938 -10
v 73.6035 60.0333 -10
v 89.5692 63.583 -10
v 89.4368 79.8114 -10
v 81.8241 76.0166 -10
v 73.6421 79.2376 -10
v 84.8244 87.6293 -10
v 85.6432 87.6988 -10
v 85.6432 88.0971 -10
v 85.2636 88.7526 -10
v 85.7458 89.3208 -10
v 85.1113 89.749 -10
v 84.0994 89.3694 -10
v 83.8302 88.7327 -10
v 83.9472 88.1291 -10
v 80.0355 88.5683 -10
v 80.3422 88.9391 -10
v 79.6426 89.9631 -10
v 78.7146 90.1661 -10
v 78.2104 89.9233 -10
v 78.8537 89.0461 -10
v 72.6015 52.4581 -8.75
v 72.6105 53.8098 -8.75
v 65.2804 55.4937 -8.75
v 60.7916 61.3055 -8.75
v 60.0357 68.4095 -8.75
v 60.1085 71.1824 -8.75
v 57.9954 70.9331 -8.75
v 55.9883 71.3138 -8.75
v 55.9188 69.61 -8.75
v 54.9643 69.5262 -8.75
v 55.0371 71.7772 -8.75
v 52.028 72.2705 -8.75
v 52.0501 70.3714 -8.75
v 50.9533 70.5049 -8.75
v 50.9202 72.724 -8.75
v 47.2733 73.1356 -8.75
v 45.7549 73.0727 -8.75
v 45.7572 69.7877 -8.75
v 45.2496 68.2208 -8.75
v 43.0549 68.4194 -8.75
v 42.5153 70.0911 -8.75
v 42.7029 73.9212 -8.75
v 43.0913 74.3328 -8.75
v 45.9228 74.4288 -8.75
v 48.8656 74.0989 -8.75
v 51.1696 73.823 -8.75
v 51.1531 81.8097 -8.75
v 52.0204 81.5824 -8.75
v 52.0778 73.5361 -8.75
v 55.0405 72.9656 -8.75
v 55.0173 81.2481 -8.75
v 55.8758 80.8519 -8.75
v 55.9608 72.7527 -8.75
v 60.3503 73.3033 -8.75
v 60.2576 79.2994 -8.75
v 58.7183 85.2072 -8.75
v 58.939 87.9669 -8.75
v 56.1087 89.0273 -8.75
v 55.3175 91.1846 -8.75
v 52.5876 92.2759 -8.75
v 47.706 91.9978 -8.75
v 47.0571 91.5895 -8.75
v 43.0571 93.4422 -8.75
v 44.2389 95.531 -8.75
v 47.44 94.1815 -8.75
v 48.0723 93.3981 -8.75
v 52.6858 93.5967 -8.75
v 56.0833 92.8243 -8.75
v 57.3721 89.973 -8.75
v 59.6993 89.0251 -8.75
v 61.7164 91.0168 -8.75
v 67.5536 92.32 -8.75
v 72.9362 91.3424 -8.75
v 72.6791 107.023 -8.75
v 73.6987 107 -8.75
v 73.6446 80.3013 -8.75
v 81.3488 76.9336 -8.75
v 81.4702 78.1827 -8.75
v 81.1778 78.9738 -8.75
v 80.2983 80.1545 -8.75
v 80.1174 80.8563 -8.75
v 80.1124 81.9741 -8.75
v 80.9499 81.9801 -8.75
v 81.0503 84.2642 -8.75
v 82.0798 84.9473 -8.75
v 82.0952 86.7999 -8.75
v 81.4144 86.8253 -8.75
v 80.1134 87.9222 -8.75
v 79.3454 87.4466 -8.75
v 78.1074 88.027 -8.75
v 77.3438 89.4769 -8.75
v 77.2688 91.4664 -8.75
v 79.5573 91.3406 -8.75
v 80.4699 90.0397 -8.75
v 82.5764 89.7097 -8.75
v 84.834 90.7216 -8.75
v 86.9338 89.9812 -8.75
v 86.2961 89.2308 -8.75
v 86.2961 88.1064 -8.75
v 86.9857 87.6143 -8.75
v 86.5355 86.5296 -8.75
v 87.3101 86.2571 -8.75
v 87.8839 84.8391 -8.75
v 87.4436 83.8637 -8.75
v 87.1424 84.0435 -8.75
v 87.4525 84.774 -8.75
v 86.9603 85.819 -8.75
v 86.3634 86.1136 -8.75
v 84.7468 85.9812 -8.75
v 83.8508 86.9423 -8.75
v 82.6536 86.8375 -8.75
v 82.5488 84.7089 -8.75
v 81.3659 83.8769 -8.75
v 81.3041 81.6347 -8.75
v 80.4975 81.5806 -8.75
v 80.6431 80.6019 -8.75
v 81.5358 79.1431 -8.75
v 81.9584 78.0165 -8.75
v 81.794 76.9285 -8.75
v 81.9209 76.9262 -8.75
v 89.4276 80.9074 -8.75
v 89.3393 91.698 -8.75
v 90.4704 91.701 -8.75
v 90.4836 62.7676 -8.75
v 73.6009 59.102 -8.75
v 73.5929 55.0601 -8.75
v 74.3366 55.0876 -8.75
v 78.2737 56.3511 -8.75
v 78.2925 55.1594 -8.75
v 73.5907 53.9191 -8.75
v 73.5887 52.5034 -8.75
v 72.0399 54.9938 -8.75
v 72.617 55.0104 -8.75
v 72.6391 58.8934 -8.75
v 70.6209 58.4553 -8.75
v 70.6374 59.3734 -8.75
v 72.6446 59.8192 -8.75
v 72.6466 60.1855 -8.75
v 72.6386 67.8247 -8.75
v 71.9224 68.1436 -8.75
v 71.9952 70.292 -8.75
v 72.6838 70.4343 -8.75
v 72.6319 79.7021 -8.75
v 65.0667 84.0972 -8.75
v 65.1196 85.1642 -8.75
v 71.9631 81.343 -8.75
v 72.8525 80.8464 -8.75
v 72.8978 80.821 -8.75
v 72.7488 90.3272 -8.75
v 69.401 91.1194 -8.75
v 63.4115 90.7608 -8.75
v 59.8419 87.0908 -8.75
v 59.9015 83.9062 -8.75
v 60.8968 80.6985 -8.75
v 61.55 78.0966 -8.75
v 61.0148 69.7689 -8.75
v 61.298 63.3153 -8.75
v 64.5999 56.9835 -8.75
v 69.1373 55.3293 -8.75
v 72.0393 54.9938 -8.75
v 73.6035 60.0333 -8.75
v 89.5692 63.583 -8.75
v 89.4368 79.8114 -8.75
v 81.8241 76.0166 -8.75
v 73.6421 79.2376 -8.75
v 84.8244 87.6293 -8.75
v 85.6432 87.6988 -8.75
v 85.6432 88.0971 -8.75
v 85.2636 88.7526 -8.75
v 85.7458 89.3208 -8.75
v 85.1113 89.749 -8.75
v 84.0994 89.3694 -8.75
v 83.8302 88.7327 -8.75
v 83.9472 88.1291 -8.75
v 80.0355 88.5683 -8.75
v 80.3422 88.9391 -8.75
v 79.6426 89.9631 -8.75
v 78.7146 90.1661 -8.75
v 78.2104 89.9233 -8.75
v 78.8537 89.0461 -8.75

vn 0.540087 0.841609 0
vn 0.514495 0.857494 0
vn 0.43227 0.901744 0
vn 0.887312 0.46117 0
vn 0.996429 0.0844341 0
vn 0.937413 0.348219 0
vn -0.0189375 0.999821 0
vn -0.224842 0.974395 0
vn -0.954288 0.298887 0
vn 0.750204 0.661207 0
vn 0.867566 0.497322 0
vn -0.150456 0.988617 0
vn -0.961134 0.276082 0
vn 0.744887 0.667191 0
vn 0.793998 0.60792 0
vn 0.0859563 0.996299 0
vn -0.747125 0.664683 0
vn -0.998095 0.0616981 0
vn -0.674818 0.737984 0
vn 0.387032 0.922066 0
vn 0.992365 0.123339 0
vn 0.995555 -0.0941793 0
vn 0.246856 -0.969052 0
vn -0.0160258 -0.999872 0
vn -0.113517 -0.993536 0
vn 0.850837 -0.525429 0
vn 0.9986 -0.0529048 0
vn -0.978495 -0.20627 0
vn -0.983369 -0.181621 0
vn 0.770812 -0.637062 0
vn 0.998741 -0.0501618 0
vn -0.980076 -0.198622 0
vn -0.960074 -0.279747 0
vn 0.632724 -0.774378 0
vn 0.99539 0.0959074 0
vn 0.981314 0.192414 0
vn 0.939964 0.341273 0
vn 0.552628 0.833428 0
vn 0.781739 0.623606 0
vn 0.181118 0.983461 0
vn -0.09223 0.995738 0
vn 0.19195 0.981405 0
vn 0.647565 0.76201 0
vn 0.453073 -0.891473 0
vn -0.443666 -0.896192 0
vn -0.226715 -0.973961 0
vn -0.0297062 -0.999559 0
vn -0.477741 -0.878501 0
vn -0.804796 -0.593552 0
vn 0.0143861 -0.999897 0
vn 0.472105 -0.881542 0
vn 0.0950528 -0.995472 0
vn 0.794025 -0.607886 0
vn 0.99987 -0.0161239 0
vn -0.997257 -0.0740181 0
vn -0.991165 -0.132632 0
vn -0.333101 -0.942891 0
vn 0.999886 0.0150977 0
vn 0.88359 0.468262 0
vn 0.844839 0.535021 0
vn 0.989577 0.144004 0
vn 0.938118 -0.346315 0
vn 0.791094 -0.611695 0
vn 0.973634 -0.228115 0
vn 0.840554 -0.541728 0
vn 0.985158 0.171648 0
vn 0.395813 0.918331 0
vn 0.454202 0.890899 0
vn -0.132479 0.991186 0
vn 0.627475 0.778637 0
vn 0.950282 0.311392 0
vn 0.874364 -0.48527 0
vn -0.272139 -0.962258 0
vn -0.597802 -0.801643 0
vn 0.0543216 -0.998523 0
vn 0.190442 -0.981698 0
vn -0.530849 -0.847466 0
vn -0.899437 0.43705 0
vn -0.969774 -0.244004 0
vn -0.912239 -0.409658 0
vn -0.998676 0.0514462 0
vn -0.6789 -0.734231 0
vn -0.983212 -0.182468 0
vn -0.831805 0.555067 0
vn 0.965863 0.259055 0
vn 0.998698 -0.0510151 0
vn 0.833411 0.552654 0
vn 0.160441 0.987045 0
vn 0.166279 0.986079 0
vn 0.519499 0.854471 0
vn -0.683181 0.730249 0
vn -0.964542 0.263929 0
vn -0.849343 0.527842 0
vn -0.979635 0.200786 0
vn -0.595183 0.80359 0
vn -0.944863 -0.327465 0
vn -0.877704 -0.479203 0
vn -0.979865 -0.199659 0
vn -0.995731 0.092305 0
vn 0.456031 -0.889964 0
vn 0.782439 -0.622727 0
vn 0.999024 -0.0441758 0
vn -0.996921 -0.0784123 0
vn -0.964466 0.264207 0
vn -0.319141 0.947707 0
vn -0.995945 -0.0899637 0
vn 0.2362 -0.971705 0
vn 0.16679 -0.985992 0
vn -0.613522 0.789678 0
vn -0.382713 0.923867 0
vn -0.945455 0.325754 0
vn 0.0286925 -0.999588 0
vn 0.957727 -0.287678 0
vn 0.96558 0.260105 0
vn 0.0104294 0.999946 0
vn 0.745494 -0.666513 0
vn 0.298885 -0.954289 0
vn 1 0.00047753 0
vn 0.9989 0.0468884 0
vn 0.898722 0.438518 0
vn 0.9828 -0.184674 0
vn 0.990514 -0.137412 0
vn 0.948367 0.317175 0
vn 0.547198 0.837003 0
vn -0.235926 -0.971771 0
vn -0.487516 -0.873114 0
vn -0.487518 -0.873113 0
vn 0.999981 0.00617336 0
vn 0.983475 0.181046 0
vn 0.0961937 0.995363 0
vn -0.271562 0.962421 0
vn -0.829742 0.558147 0
vn -0.993296 -0.115595 0
vn -0.959605 -0.281351 0
vn -0.998379 -0.0569088 0
vn -0.99942 0.0340448 0
vn -0.98038 -0.197115 0
vn -0.789214 -0.614118 0
vn -0.291078 -0.956699 0
vn -0.11481 -0.993388 0
vn -0.909938 -0.414745 0
vn 0.591505 -0.806301 0
vn 0.964244 0.265014 0
vn -0.183464 0.983027 0
vn -0.614084 0.789241 0
vn -0.339953 -0.940442 0
vn 0.31179 -0.950151 0
vn 0.967492 0.252902 0
vn 0.989312 0.145814 0
vn 0.978485 -0.20632 0
vn 0.204578 0.97885 0
vn -0.51999 0.854172 0
vn -0.975698 0.21912 0
vn -0.838078 -0.54555 0
vn -0.213938 -0.976847 0
vn 0.998814 0.0486955 0
vn 0.695253 0.718765 0
vn 0.0690221 0.997615 0
vn -0.965911 0.258873 0
vn -0.670738 -0.741694 0
vn 0.939504 0.342537 0
vn 0.306602 0.951838 0
vn 0.632235 0.774777 0
vn 0.957898 0.28711 0
vn 0.998838 0.0481858 0
vn 0.480271 0.87712 0
vn 0.0832677 0.996527 0
vn -0.815742 0.578415 0
vn -0.68718 0.726487 0
vn 0.983651 0.180086 0
vn 0.478235 0.878232 0
vn -0.744351 0.667789 0
vn -0.600783 0.799412 0
vn 0.969129 0.246553 0
vn 0.383469 0.923554 0
vn 0.042721 0.999087 0
vn -0.974933 0.2225 0
vn -0.987778 0.15587 0
vn -0.232314 0.972641 0
vn 0.734357 0.678763 0
vn 0.999845 0.0176158 0
vn 0.97919 -0.202943 0
vn 0.0992523 -0.995062 0
vn -0.0645494 -0.997915 0
vn -0.115973 -0.993252 0
vn 0.989697 -0.143175 0
vn 0.974958 -0.222388 0
vn -0.998194 -0.0600699 0
vn -0.837977 -0.545705 0
vn 0.98378 -0.179378 0
vn 0.975373 -0.220562 0
vn -0.998085 -0.0618576 0
vn -0.619652 -0.784877 0
vn 0.948157 -0.317803 0
vn 0.984517 0.175289 0
vn 0.995416 0.0956386 0
vn 0.667798 0.744343 0
vn 0.772897 0.634532 0
vn 0.570293 0.821441 0
vn 0.042796 0.999084 0
vn -0.174426 0.98467 0
vn 0.356213 0.934405 0
vn 0.965097 0.261892 0
vn -0.0801998 -0.996779 0
vn -0.546796 -0.837266 0
vn -0.0391436 -0.999234 0
vn -0.117187 -0.99311 0
vn -0.734902 -0.678173 0
vn -0.624093 -0.78135 0
vn 0.430666 -0.902511 0
vn 0.318358 -0.94797 0
vn -0.0392485 -0.999229 0
vn 0.987406 -0.158208 0
vn 0.993567 -0.113249 0
vn -0.999854 -0.0170581 0
vn -0.908753 -0.417335 0
vn -0.108766 -0.994067 0
vn 0.986867 0.161535 0
vn 0.838182 0.545391 0
vn 0.9014 0.432987 0
vn 0.997893 0.0648749 0
vn 0.560333 -0.828268 0
vn 0.975192 -0.221363 0
vn 0.860667 -0.509169 0
vn 0.972029 -0.234863 0
vn 0.816436 0.577436 0
vn 0.560028 0.828473 0
vn 0.0512685 0.998685 0
vn 0.206664 0.978412 0
vn 0.782949 0.622086 0
vn 0.986135 0.165948 0
vn 0.360128 -0.932903 0
vn -0.552636 -0.833422 0
vn -0.357305 -0.933988 0
vn 0.247811 -0.968808 0
vn -0.0724353 -0.997373 0
vn -0.938533 -0.345191 0
vn -0.978128 0.208003 0
vn -0.83687 -0.547402 0
vn -0.996879 0.0789395 0
vn -0.829104 -0.559095 0
vn -0.850516 -0.52595 0
vn -0.99588 0.0906866 0
vn -0.508446 0.861094 0
vn 0.981631 -0.19079 0
vn 0.972597 0.232497 0
vn 0.695978 0.718063 0
vn 0.00777845 0.99997 0
vn 0.464899 0.885364 0
vn 0.222635 0.974902 0
vn -0.95172 0.306966 0
vn -0.837893 0.545835 0
vn -0.971106 0.238647 0
vn -0.814361 0.580359 0
vn -0.968721 0.248152 0
vn -0.895995 -0.444064 0
vn -0.905654 -0.424017 0
vn -0.999597 -0.0283869 0
vn -0.99667 -0.0815387 0
vn 0.465359 -0.885122 0
vn 0.961259 -0.275645 0
vn 0.980327 -0.197378 0
vn -0.9998 -0.0199987 0
vn -0.732009 0.681295 0
vn -0.570863 0.821045 0
vn -0.937529 -0.347908 0
vn 0.284192 -0.958767 0
vn -0.27122 -0.962517 0
vn -0.364397 0.931244 0
vn -0.654322 0.756216 0
vn -0.606162 0.795341 0
vn 0.0286752 -0.999589 0
vn 0.996828 -0.0795798 0
vn 0.599512 0.800366 0
vn 0.575788 0.817599 0
vn 0.409568 -0.91228 0
vn 0.505565 -0.862788 0
vn 1 0.000894384 0
vn 0.985195 0.171435 0
vn 0.992447 0.122675 0
vn 0.859041 -0.511907 0
vn 0.99951 -0.0312918 0
vn 0.765418 0.643533 0
vn 0.658624 0.752472 0
vn -0.431675 -0.902029 0
vn -0.48751 -0.873117 0
vn -0.487626 -0.873052 0
vn 0.999911 0.0133044 0
vn 0.850985 0.525189 0
vn 0.00489611 0.999988 0
vn -0.505845 0.862625 0
vn -0.945702 0.325036 0
vn -0.977947 -0.208853 0
vn -0.964539 -0.263941 0
vn -0.999766 0.021654 0
vn -0.999999 -0.00146498 0
vn -0.940812 -0.338928 0
vn -0.614495 -0.78892 0
vn -0.219361 -0.975644 0
vn -0.114765 -0.993393 0
vn -0.354846 -0.934925 0
vn 0.916642 -0.399709 0
vn 0.490267 0.871572 0
vn 0.109738 0.993961 0
vn -0.973542 0.22851 0
vn -0.142032 -0.989862 0
vn 0.726721 -0.686932 0
vn 0.913909 0.40592 0
vn 0.950657 -0.310245 0
vn 0.875372 0.48345 0
vn -0.123584 0.992334 0
vn -0.729384 0.684104 0
vn -0.999817 0.0191418 0
vn -0.650597 -0.759423 0
vn 0.145338 -0.989382 0
vn 0.911361 0.411609 0
vn 0.48833 0.872659 0
vn -0.144352 0.989526 0
vn -0.931113 -0.364731 0
vn -0.520473 -0.853878 0

f 1//1 2//2 161//161
f 2//2 162//162 161//161
f 2//2 3//3 162//162
f 3//3 163//163 162//162
f 3//3 4//4 163//163
f 4//4 164//164 163//163
f 4//4 5//5 164//164
f 5//5 165//165 164//164
f 5//5 6//6 165//165
f 6//6 166//166 165//165
f 6//6 7//7 166//166
f 7//7 167//167 166//166
f 7//7 8//8 167//167
f 8//8 168//168 167//167
f 8//8 9//9 168//168
f 9//9 169//169 168//168
f 9//9 10//10 169//169
f 10//10 170//170 169//169
f 10//10 11//11 170//170
f 11//11 171//171 170//170
f 11//11 12//12 171//171
f 12//12 172//172 171//171
f 12//12 13//13 172//172
f 13//13 173//173 172//172
f 13//13 14//14 173//173
f 14//14 174//174 173//173
f 14//14 15//15 174//174
f 15//15 175//175 174//174
f 15//15 16//16 175//175
f 16//16 176//176 175//175
f 16//16 17//17 176//176
f 17//17 177//177 176//176
f 17//17 18//18 177//177
f 18//18 178//178 177//177
f 18//18 19//19 178//178
f 19//19 179//179 178//178
f 19//19 20//20 179//179
f 20//20 180//180 179//179
f 20//20 21//21 180//180
f 21//21 181//181 180//180
f 21//21 22//22 181//181
f 22//22 182//182 181//181
f 22//22 23//23 182//182
f 23//23 183//183 182//182
f 23//23 24//24 183//183
f 24//24 184//184 183//183
f 24//24 25//25 184//184
f 25//25 185//185 184//184
f 25//25 26//26 185//185
f 26//26 186//186 185//185
f 26//26 27//27 186//186
f 27//27 187//187 186//186
f 27//27 28//28 187//187
f 28//28 188//188 187//187
f 28//28 29//29 188//188
f 29//29 189//189 188//188
f 29//29 30//30 189//189
f 30//30 190//190 189//189
f 30//30 31//31 190//190
f 31//31 191//191 190//190
f 31//31 32//32 191//191
f 32//32 192//192 191//191
f 32//32 33//33 192//192
f 33//33 193//193 192//192
f 33//33 34//34 193//193
f 34//34 194//194 193//193
f 34//34 35//35 194//194
f 35//35 195//195 194//194
f 35//35 36//36 195//195
f 36//36 196//196 195//195
f 36//36 37//37 196//196
f 37//37 197//197 196//196
f 37//37 38//38 197//197
f 38//38 198//198 197//197
f 38//38 39//39 198//198
f 39//39 199//199 198//198
f 39//39 40//40 199//199
f 40//40 200//200 199//199
f 40//40 41//41 200//200
f 41//41 201//201 200//200
f 41//41 42//42 201//201
f 42//42 202//202 201//201
f 42//42 43//43 202//202
f 43//43 203//203 202//202
f 43//43 44//44 203//203
f 44//44 204//204 203//203
f 44//44 45//45 204//204
f 45//45 205//205 204//204
f 45//45 46//46 205//205
f 46//46 206//206 205//205
f 46//46 47//47 206//206
f 47//47 207//207 206//206
f 47//47 48//48 207//207
f 48//48 208//208 207//207
f 48//48 49//49 208//208
f 49//49 209//209 208//208
f 49//49 50//50 209//209
f 50//50 210//210 209//209
f 50//50 51//51 210//210
f 51//51 211//211 210//210
f 51//51 52//52 211//211
f 52//52 212//212 211//211
f 52//52 53//53 212//212
f 53//53 213//213 212//212
f 53//53 54//54 213//213
f 54//54 214//214 213//213
f 54//54 55//55 214//214
f 55//55 215//215 214//214
f 55//55 56//56 215//215
f 56//56 216//216 215//215
f 56//56 57//57 216//216
f 57//57 217//217 216//216
f 57//57 58//58 217//217
f 58//58 218//218 217//217
f 58//58 59//59 218//218
f 59//59 219//219 218//218
f 59//59 60//60 219//219
f 60//60 220//220 219//219
f 60//60 61//61 220//220
f 61//61 221//221 220//220
f 61//61 62//62 221//221
f 62//62 222//222 221//221
f 62//62 63//63 222//222
f 63//63 223//223 222//222
f 63//63 64//64 223//223
f 64//64 224//224 223//223
f 64//64 65//65 224//224
f 65//65 225//225 224//224
f 65//65 66//66 225//225
f 66//66 226//226 225//225
f 66//66 67//67 226//226
f 67//67 227//227 226//226
f 67//67 68//68 227//227
f 68//68 228//228 227//227
f 68//68 69//69 228//228
f 69//69 229//229 228//228
f 69//69 70//70 229//229
f 70//70 230//230 229//229
f 70//70 71//71 230//230
f 71//71 231//231 230//230
f 71//71 72//72 231//231
f 72//72 232//232 231//231
f 72//72 73//73 232//232
f 73//73 233//233 232//232
f 73//73 74//74 233//233
f 74//74 234//234 233//233
f 74//74 75//75 234//234
f 75//75 235//235 234//234
f 75//75 76//76 235//235
f 76//76 236//236 235//235
f 76//76 77//77 236//236
f 77//77 237//237 236//236
f 77//77 78//78 237//237
f 78//78 238//238 237//237
f 78//78 79//79 238//238
f 79//79 239//239 238//238
f 79//79 80//80 239//239
f 80//80 240//240 239//239
f 80//80 81//81 240//240
f 81//81 241//241 240//240
f 81//81 82//82 241//241
f 82//82 242//242 241//241
f 82//82 83//83 242//242
f 83//83 243//243 242//242
f 83//83 84//84 243//243
f 84//84 244//244 243//243
f 84//84 85//85 244//244
f 85//85 245//245 244//244
f 85//85 86//86 245//245
f 86//86 246//246 245//245
f 86//86 87//87 246//246
f 87//87 247//247 246//246
f 87//87 88//88 247//247
f 88//88 248//248 247//247
f 88//88 89//89 248//248
f 89//89 249//249 248//248
f 89//89 90//90 249//249
f 90//90 250//250 249//249
f 90//90 91//91 250//250
f 91//91 251//251 250//250
f 91//91 92//92 251//251
f 92//92 252//252 251//251
f 92//92 93//93 252//252
f 93//93 253//253 252//252
f 93//93 94//94 253//253
f 94//94 254//254 253//253
f 94//94 95//95 254//254
f 95//95 255//255 254//254
f 95//95 96//96 255//255
f 96//96 256//256 255//255
f 96//96 97//97 256//256
f 97//97 257//257 256//256
f 97//97 98//98 257//257
f 98//98 258//258 257//257
f 98//98 99//99 258//258
f 99//99 259//259 258//258
f 99//99 100//100 259//259
f 100//100 260//260 259//259
f 100//100 101//101 260//260
f 101//101 261//261 260//260
f 101//101 102//102 261//261
f 102//102 262//262 261//261
f 102//102 103//103 262//262
f 103//103 263//263 262//262
f 103//103 104//104 263//263
f 104//104 264//264 263//263
f 104//104 105//105 264//264
f 105//105 265//265 264//264
f 105//105 106//106 265//265
f 106//106 266//266 265//265
f 106//106 107//107 266//266
f 107//107 267//267 266//266
f 107//107 108//108 267//267
f 108//108 268//268 267//267
f 108//108 109//109 268//268
f 109//109 269//269 268//268
f 109//109 110//110 269//269
f 110//110 270//270 269//269
f 110//110 111//111 270//270
f 111//111 271//271 270//270
f 111//111 1//1 271//271
f 1//1 161//161 271//271
f 112//112 113//113 272//272
f 113//113 273//273 272//272
f 113//113 114//114 273//273
f 114//114 274//274 273//273
f 114//114 115//115 274//274
f 115//115 275//275 274//274
f 115//115 116//116 275//275
f 116//116 276//276 275//275
f 116//116 117//117 276//276
f 117//117 277//277 276//276
f 117//117 118//118 277//277
f 118//118 278//278 277//277
f 118//118 119//119 278//278
f 119//119 279//279 278//278
f 119//119 120//120 279//279
f 120//120 280//280 279//279
f 120//120 121//121 280//280
f 121//121 281//281 280//280
f 121//121 122//122 281//281
f 122//122 282//282 281//281
f 122//122 123//123 282//282
f 123//123 283//283 282//282
f 123//123 124//124 283//283
f 124//124 284//284 283//283
f 124//124 125//125 284//284
f 125//125 285//285 284//284
f 125//125 126//126 285//285
f 126//126 286//286 285//285
f 126//126 127//127 286//286
f 127//127 287//287 286//286
f 127//127 128//128 287//287
f 128//128 288//288 287//287
f 128//128 129//129 288//288
f 129//129 289//289 288//288
f 129//129 130//130 289//289
f 130//130 290//290 289//289
f 130//130 131//131 290//290
f 131//131 291//291 290//290
f 131//131 132//132 291//291
f 132//132 292//292 291//291
f 132//132 133//133 292//292
f 133//133 293//293 292//292
f 133//133 134//134 293//293
f 134//134 294//294 293//293
f 134//134 135//135 294//294
f 135//135 295//295 294//294
f 135//135 136//136 295//295
f 136//136 296//296 295//295
f 136//136 137//137 296//296
f 137//137 297//297 296//296
f 137//137 138//138 297//297
f 138//138 298//298 297//297
f 138//138 139//139 298//298
f 139//139 299//299 298//298
f 139//139 140//140 299//299
f 140//140 300//300 299//299
f 140//140 112//112 300//300
f 112//112 272//272 300//300
f 141//141 142//142 301//301
f 142//142 302//302 301//301
f 142//142 143//143 302//302
f 143//143 303//303 302//302
f 143//143 144//144 303//303
f 144//144 304//304 303//303
f 144//144 145//145 304//304
f 145//145 305//305 304//304
f 145//145 141//141 305//305
f 141//141 301//301 305//305
f 146//146 147//147 306//306
f 147//147 307//307 306//306
f 147//147 148//148 307//307
f 148//148 308//308 307//307
f 148//148 149//149 308//308
f 149//149 309//309 308//308
f 149//149 150//150 309//309
f 150//150 310//310 309//309
f 150//150 151//151 310//310
f 151//151 311//311 310//310
f 151//151 152//152 311//311
f 152//152 312//312 311//311
f 152//152 153//153 312//312
f 153//153 313//313 312//312
f 153//153 154//154 313//313
f 154//154 314//314 313//313
f 154//154 146//146 314//314
f 146//146 306//306 314//314
f 155//155 156//156 315//315
f 156//156 316//316 315//315
f 156//156 157//157 316//316
f 157//157 317//317 316//316
f 157//157 158//158 317//317
f 158//158 318//318 317//317
f 158//158 159//159 318//318
f 159//159 319//319 318//318
f 159//159 160//160 319//319
f 160//160 320//320 319//319
f 160//160 155//155 320//320
f 155//155 315//315 320//320

