# Wavefront OBJ

mtllib corridors_inf_public_accessible_wall_tri.mtl

o corridors_inf_public_accessible_wall_tri_0

s 1

usemtl corridors_inf_public_accessible_wall_tri_0

v 143.398 133.61 -15
v 171.397 133.61 -15
v 171.397 168.905 -15
v 142.302 168.905 -15
v 142.302 154.321 -15
v 117.177 154.321 -15
v 117.177 225.701 -15
v 43.9072 225.701 -15
v 43.9072 246.142 -15
v 18.2725 246.142 -15
v 18.2725 191.802 -15
v 45.4695 191.802 -15
v 45.4695 214.407 -15
v 103.274 214.407 -15
v 103.274 104.241 -15
v 63.6977 104.241 -15
v 58.9368 117.955 -15
v 33.4165 122.096 -15
v 20.2027 102.708 -15
v 27.8799 74.466 -15
v 49.5097 70.4671 -15
v 64.4163 89.3988 -15
v 116.204 90.4552 -15
v 116.204 143.054 -15
v 143.454 143.054 -15
v 143.398 133.61 -12
v 171.397 133.61 -12
v 171.397 168.905 -12
v 142.302 168.905 -12
v 142.302 154.321 -12
v 117.177 154.321 -12
v 117.177 225.701 -12
v 43.9072 225.701 -12
v 43.9072 246.142 -12
v 18.2725 246.142 -12
v 18.2725 191.802 -12
v 45.4695 191.802 -12
v 45.4695 214.407 -12
v 103.274 214.407 -12
v 103.274 104.241 -12
v 63.6977 104.241 -12
v 58.9368 117.955 -12
v 33.4165 122.096 -12
v 20.2027 102.708 -12
v 27.8799 74.466 -12
v 49.5097 70.4671 -12
v 64.4163 89.3988 -12
v 116.204 90.4552 -12
v 116.204 143.054 -12
v 143.454 143.054 -12

vn -0.560753 -0.827983 0
vn 0.533211 -0.845982 0
vn 0.924545 0.381074 0
vn -0.243114 0.969998 0
vn -0.757683 0.652623 0
vn 0.817708 0.575633 0
vn 0.889667 0.45661 0
vn 0.138152 0.990411 0
vn 0.847217 0.531247 0
vn -0.727354 0.686263 0
vn -0.970085 -0.242765 0
vn 0.383751 -0.923437 0
vn 0.616062 -0.787697 0
vn -0.68986 -0.723942 0
vn -0.984248 0.176791 0
vn 0.161282 0.986908 0
vn 0.669317 0.742977 0
vn -0.170308 0.985391 0
vn -0.963019 0.269433 0
vn -0.853138 -0.521685 0
vn 0.18474 -0.982787 0
vn 0.430493 -0.902594 0
vn 0.467066 -0.884222 0
vn 0.968051 -0.250753 0
vn -0.170906 -0.985287 0
vn -0.166453 -0.986049 0
vn 0.929548 -0.368701 0
vn 0.518601 0.855016 0
vn -0.708001 0.706211 0
vn -0.278742 0.960366 0
vn 0.984865 0.173326 0
vn 0.437915 0.899016 0
vn 0.487244 0.873266 0
vn 0.370344 0.928895 0
vn -0.973291 0.229577 0
vn -0.706751 -0.707463 0
vn 0.856893 -0.515495 0
vn 0.191893 -0.981416 0
vn -0.967266 -0.253763 0
vn -0.812119 0.583492 0
vn 0.487677 0.873024 0
vn 0.366727 0.930328 0
vn -0.554738 0.832025 0
vn -0.999602 -0.0282031 0
vn -0.579713 -0.81482 0
vn 0.549848 -0.835265 0
vn 0.174879 -0.98459 0
vn 0.898911 -0.438131 0
vn 0.694456 -0.719535 0
vn -0.571238 -0.820784 0

f 1//1 2//2 26//26
f 2//2 27//27 26//26
f 2//2 3//3 27//27
f 3//3 28//28 27//27
f 3//3 4//4 28//28
f 4//4 29//29 28//28
f 4//4 5//5 29//29
f 5//5 30//30 29//29
f 5//5 6//6 30//30
f 6//6 31//31 30//30
f 6//6 7//7 31//31
f 7//7 32//32 31//31
f 7//7 8//8 32//32
f 8//8 33//33 32//32
f 8//8 9//9 33//33
f 9//9 34//34 33//33
f 9//9 10//10 34//34
f 10//10 35//35 34//34
f 10//10 11//11 35//35
f 11//11 36//36 35//35
f 11//11 12//12 36//36
f 12//12 37//37 36//36
f 12//12 13//13 37//37
f 13//13 38//38 37//37
f 13//13 14//14 38//38
f 14//14 39//39 38//38
f 14//14 15//15 39//39
f 15//15 40//40 39//39
f 15//15 16//16 40//40
f 16//16 41//41 40//40
f 16//16 17//17 41//41
f 17//17 42//42 41//41
f 17//17 18//18 42//42
f 18//18 43//43 42//42
f 18//18 19//19 43//43
f 19//19 44//44 43//43
f 19//19 20//20 44//44
f 20//20 45//45 44//44
f 20//20 21//21 45//45
f 21//21 46//46 45//45
f 21//21 22//22 46//46
f 22//22 47//47 46//46
f 22//22 23//23 47//47
f 23//23 48//48 47//47
f 23//23 24//24 48//48
f 24//24 49//49 48//48
f 24//24 25//25 49//49
f 25//25 50//50 49//49
f 25//25 1//1 50//50
f 1//1 26//26 50//50

