# Wavefront OBJ

mtllib masonry_sup_public_accessible_wall_tri.mtl

o masonry_sup_public_accessible_wall_tri_0

s 1

usemtl masonry_sup_public_accessible_wall_tri_0

v 43.8529 72.8087 -10
v 43.8529 74.1382 -10
v 44.7507 74.1382 -10
v 44.7507 72.7938 -10
v 43.8529 72.8087 -8.75
v 43.8529 74.1382 -8.75
v 44.7507 74.1382 -8.75
v 44.7507 72.7938 -8.75
v 42.1182 70.1595 -10
v 42.7216 70.1595 -10
v 42.7216 71.6299 -10
v 42.1161 71.6299 -10
v 42.1182 70.1595 -8.75
v 42.7216 70.1595 -8.75
v 42.7216 71.6299 -8.75
v 42.1161 71.6299 -8.75
v 47.8263 91.4907 -10
v 47.8177 92.2276 -10
v 49.176 92.2276 -10
v 49.176 91.4672 -10
v 47.8263 91.4907 -8.75
v 47.8177 92.2276 -8.75
v 49.176 92.2276 -8.75
v 49.176 91.4672 -8.75
v 81.06 89.0211 -10
v 81.5139 88.9712 -10
v 81.4284 88.336 -10
v 80.9839 88.4042 -10
v 81.06 89.0211 -8.75
v 81.5139 88.9712 -8.75
v 81.4284 88.336 -8.75
v 80.9839 88.4042 -8.75
v 82.5663 88.9402 -10
v 83.0203 88.8903 -10
v 82.9347 88.2551 -10
v 82.4903 88.3233 -10
v 82.5663 88.9402 -8.75
v 83.0203 88.8903 -8.75
v 82.9347 88.2551 -8.75
v 82.4903 88.3233 -8.75
v 86.7911 87.1335 -10
v 87.2141 86.961 -10
v 86.9577 86.3736 -10
v 86.5489 86.561 -10
v 86.7911 87.1335 -8.75
v 87.2141 86.961 -8.75
v 86.9577 86.3736 -8.75
v 86.5489 86.561 -8.75
v 86.303 89.2191 -10
v 86.7589 89.2448 -10
v 86.7765 88.1241 -10
v 86.3269 88.118 -10
v 86.303 89.2191 -8.75
v 86.7589 89.2448 -8.75
v 86.7765 88.1241 -8.75
v 86.3269 88.118 -8.75

vn 0.603594 0.797292 0
vn 0.947455 -0.319888 0
vn -0.599363 -0.800477 0
vn -0.947995 0.318286 0
vn 0.947995 0.318286 0
vn 0.595081 -0.803666 0
vn -0.948526 -0.3167 0
vn -0.590748 0.806856 0
vn -0.979316 -0.202338 0
vn 0.773004 -0.634402 0
vn 0.979455 0.201663 0
vn -0.772459 0.635065 0
vn -0.772459 -0.635065 0
vn 0.979594 -0.200987 0
vn 0.771914 0.635726 0
vn -0.979732 0.200312 0
vn 0.27808 0.960558 0
vn 0.739599 -0.673047 0
vn -0.269551 -0.962986 0
vn -0.742761 0.669557 0
vn 0.738527 0.674223 0
vn 0.262557 -0.964916 0
vn -0.745834 -0.666132 0
vn -0.255477 0.966815 0
vn 0.890141 -0.455685 0
vn -0.666423 -0.745574 0
vn -0.890088 0.455788 0
vn 0.679752 0.733442 0
vn 0.465155 -0.885229 0
vn -0.977819 -0.20945 0
vn -0.455632 0.890168 0
vn 0.975709 0.219072 0
vn 0.89014 -0.455688 0
vn -0.666431 -0.745567 0
vn -0.890087 0.45579 0
vn 0.67976 0.733435 0
vn 0.465144 -0.885235 0
vn -0.97782 -0.209449 0
vn -0.455621 0.890174 0
vn 0.975709 0.21907 0
vn 0.731171 -0.682194 0
vn -0.845246 -0.534377 0
vn -0.731086 0.682286 0
vn 0.854742 0.519052 0
vn 0.204722 -0.97882 0
vn -0.997782 0.0665663 0
vn -0.194219 0.980958 0
vn 0.99839 -0.0567261 0
vn 0.983632 -0.180188 0
vn -0.754715 -0.656052 0
vn -0.983415 0.18137 0
vn 0.762786 0.646651 0
vn 0.792139 -0.610341 0
vn -0.97631 -0.216374 0
vn -0.78919 0.614149 0
vn 0.975293 0.220915 0

f 1//1 2//2 5//5
f 2//2 6//6 5//5
f 2//2 3//3 6//6
f 3//3 7//7 6//6
f 3//3 4//4 7//7
f 4//4 8//8 7//7
f 4//4 1//1 8//8
f 1//1 5//5 8//8
f 9//9 10//10 13//13
f 10//10 14//14 13//13
f 10//10 11//11 14//14
f 11//11 15//15 14//14
f 11//11 12//12 15//15
f 12//12 16//16 15//15
f 12//12 9//9 16//16
f 9//9 13//13 16//16
f 17//17 18//18 21//21
f 18//18 22//22 21//21
f 18//18 19//19 22//22
f 19//19 23//23 22//22
f 19//19 20//20 23//23
f 20//20 24//24 23//23
f 20//20 17//17 24//24
f 17//17 21//21 24//24
f 25//25 26//26 29//29
f 26//26 30//30 29//29
f 26//26 27//27 30//30
f 27//27 31//31 30//30
f 27//27 28//28 31//31
f 28//28 32//32 31//31
f 28//28 25//25 32//32
f 25//25 29//29 32//32
f 33//33 34//34 37//37
f 34//34 38//38 37//37
f 34//34 35//35 38//38
f 35//35 39//39 38//38
f 35//35 36//36 39//39
f 36//36 40//40 39//39
f 36//36 33//33 40//40
f 33//33 37//37 40//40
f 41//41 42//42 45//45
f 42//42 46//46 45//45
f 42//42 43//43 46//46
f 43//43 47//47 46//46
f 43//43 44//44 47//47
f 44//44 48//48 47//47
f 44//44 41//41 48//48
f 41//41 45//45 48//48
f 49//49 50//50 53//53
f 50//50 54//54 53//53
f 50//50 51//51 54//54
f 51//51 55//55 54//54
f 51//51 52//52 55//55
f 52//52 56//56 55//55
f 52//52 49//49 56//56
f 49//49 53//53 56//56

