# Wavefront OBJ

mtllib street signs_inf_public_accessible_wall_tri.mtl

o street signs_inf_public_accessible_wall_tri_0

s 1

usemtl street signs_inf_public_accessible_wall_tri_0

v 62.2624 71.6011 -14.5
v 63.7064 70.6308 -14.5
v 62.2624 71.6011 -14
v 63.7064 70.6308 -14
v 83.7006 60.3996 -14.5
v 82.6577 58.3937 -14.5
v 83.7006 60.3996 -14
v 82.6577 58.3937 -14

vn -0.557738 -0.830017 0
vn -0.557738 -0.830017 0
vn -0.557738 -0.830017 0
vn -0.557738 -0.830017 0
vn -0.887246 0.461297 0
vn -0.887246 0.461297 0
vn -0.887246 0.461297 0
vn -0.887246 0.461297 0

f 1//1 2//2 3//3
f 2//2 4//4 3//3
f 5//5 6//6 7//7
f 6//6 8//8 7//7

